<svg width="325" height="180" viewBox="0 0 325 180" fill="none" xmlns="http://www.w3.org/2000/svg">
<path d="M65.1243 174.961L62 5.03222C62 2.71192 63.8858 0.833252 66.215 0.833252L262.216 19.4868C264.545 19.4868 266.431 21.3655 266.431 23.6858L249.825 132.046C249.825 134.366 247.939 136.245 245.61 136.245L107.535 140.381C106.324 140.381 105.177 140.899 104.375 141.797L72.4988 177.73C69.9234 180.639 65.1243 178.83 65.1243 174.961Z" fill="#84513C"/>
<path d="M95.4906 53.325C95.3833 55.9163 95.3296 58.6917 95.3296 61.651C95.3296 64.6257 95.3833 67.4087 95.4906 70H87.2566L81.6906 57.442L82.1046 70H76.1936C76.3163 67.0253 76.3776 64.2423 76.3776 61.651C76.3776 59.075 76.3163 56.2997 76.1936 53.325H84.6576L90.2466 66.228L89.8556 53.325H95.4906ZM111.745 53.279H117.449V62.433C117.419 64.687 116.644 66.55 115.126 68.022C113.624 69.494 111.086 70.23 107.513 70.23C103.895 70.23 101.418 69.5323 100.084 68.137C98.7504 66.7263 98.0987 64.8787 98.1294 62.594V53.279H103.833V62.226C103.833 62.9007 103.879 63.4527 103.971 63.882C104.079 64.296 104.401 64.687 104.937 65.055C105.489 65.423 106.371 65.607 107.582 65.607C108.901 65.607 109.867 65.423 110.48 65.055C111.094 64.6717 111.454 64.25 111.561 63.79C111.684 63.33 111.745 62.7397 111.745 62.019V53.279ZM125.516 65.791C131.342 65.7603 135.567 65.676 138.189 65.538C138.081 66.1667 138.012 66.8183 137.982 67.493C137.966 68.1523 137.959 68.988 137.959 70H120.088C120.21 67.0253 120.272 64.2423 120.272 61.651C120.272 59.0597 120.21 56.2767 120.088 53.302H137.959V57.465H125.516V59.673C126.252 59.6883 127.34 59.696 128.782 59.696C131.22 59.696 133.742 59.65 136.349 59.558V63.514C133.742 63.422 131.22 63.376 128.782 63.376C127.34 63.376 126.252 63.3837 125.516 63.399V65.791ZM140.833 68.022C141.354 67.24 141.784 66.5117 142.121 65.837C142.474 65.1623 142.811 64.3803 143.133 63.491C144.222 64.1197 145.487 64.6103 146.928 64.963C148.369 65.3157 149.711 65.492 150.953 65.492C152.226 65.492 153.123 65.3847 153.644 65.17C154.165 64.94 154.426 64.6947 154.426 64.434C154.426 63.4987 153 63.031 150.148 63.031C147.02 63.031 144.751 62.709 143.34 62.065C141.929 61.4057 141.224 60.3477 141.224 58.891C141.224 56.821 142.083 55.2953 143.8 54.314C145.517 53.3327 147.748 52.842 150.493 52.842C152.088 52.842 153.721 53.049 155.392 53.463C157.079 53.8617 158.597 54.4137 159.946 55.119C159.501 56.131 159.034 57.3653 158.543 58.822C158.451 59.1287 158.374 59.3587 158.313 59.512C157.531 58.8833 156.35 58.362 154.771 57.948C153.192 57.5187 151.796 57.304 150.585 57.304C149.128 57.304 148.147 57.4037 147.641 57.603C147.135 57.787 146.882 58.063 146.882 58.431C146.882 58.799 147.227 59.098 147.917 59.328C148.622 59.5427 149.634 59.65 150.953 59.65C154.204 59.65 156.565 60.0257 158.037 60.777C159.509 61.513 160.245 62.6477 160.245 64.181C160.245 66.3277 159.463 67.8763 157.899 68.827C156.335 69.7623 153.966 70.23 150.792 70.23C149.09 70.23 147.357 70.046 145.594 69.678C143.831 69.2947 142.244 68.7427 140.833 68.022ZM181.717 58.132C179.31 58.0553 176.971 58.0093 174.702 57.994V70H168.952V57.994C166.667 58.0093 164.337 58.0553 161.96 58.132V53.302H181.717V58.132ZM202.836 58.868C202.836 60.202 202.507 61.329 201.847 62.249C201.203 63.169 200.092 63.836 198.512 64.25C198.696 64.4953 198.827 64.687 198.903 64.825L202.629 70H196.373C195.699 68.7427 194.633 66.964 193.176 64.664H189.795V70H184.367C184.49 67.0253 184.551 64.2423 184.551 61.651C184.551 59.0597 184.49 56.2767 184.367 53.302H189.795V53.325H194.51C197.608 53.325 199.77 53.8233 200.996 54.82C202.223 55.8167 202.836 57.166 202.836 58.868ZM189.795 57.741V60.363H192.9C194.204 60.363 195.185 60.3247 195.844 60.248C196.519 60.156 196.987 60.018 197.247 59.834C197.508 59.65 197.638 59.3817 197.638 59.029C197.638 58.6917 197.516 58.431 197.27 58.247C197.025 58.063 196.565 57.9327 195.89 57.856C195.216 57.7793 194.219 57.741 192.9 57.741H189.795ZM215.707 70.23C212.196 70.23 209.612 69.471 207.956 67.953C206.3 66.4197 205.472 64.273 205.472 61.513C205.472 58.7837 206.292 56.6523 207.933 55.119C209.589 53.5857 212.18 52.819 215.707 52.819C219.249 52.819 221.84 53.5857 223.481 55.119C225.137 56.6523 225.965 58.7837 225.965 61.513C225.965 64.2883 225.145 66.435 223.504 67.953C221.863 69.471 219.264 70.23 215.707 70.23ZM215.707 65.538C217.409 65.538 218.636 65.216 219.387 64.572C220.138 63.9127 220.514 62.893 220.514 61.513C220.514 60.1637 220.138 59.1593 219.387 58.5C218.636 57.8407 217.409 57.511 215.707 57.511C214.02 57.511 212.801 57.8407 212.05 58.5C211.299 59.1593 210.923 60.1637 210.923 61.513C210.923 62.8777 211.299 63.8897 212.05 64.549C212.801 65.2083 214.02 65.538 215.707 65.538ZM228.598 68.022C229.12 67.24 229.549 66.5117 229.886 65.837C230.239 65.1623 230.576 64.3803 230.898 63.491C231.987 64.1197 233.252 64.6103 234.693 64.963C236.135 65.3157 237.476 65.492 238.718 65.492C239.991 65.492 240.888 65.3847 241.409 65.17C241.931 64.94 242.191 64.6947 242.191 64.434C242.191 63.4987 240.765 63.031 237.913 63.031C234.785 63.031 232.516 62.709 231.105 62.065C229.695 61.4057 228.989 60.3477 228.989 58.891C228.989 56.821 229.848 55.2953 231.565 54.314C233.283 53.3327 235.514 52.842 238.258 52.842C239.853 52.842 241.486 53.049 243.157 53.463C244.844 53.8617 246.362 54.4137 247.711 55.119C247.267 56.131 246.799 57.3653 246.308 58.822C246.216 59.1287 246.14 59.3587 246.078 59.512C245.296 58.8833 244.116 58.362 242.536 57.948C240.957 57.5187 239.562 57.304 238.35 57.304C236.894 57.304 235.912 57.4037 235.406 57.603C234.9 57.787 234.647 58.063 234.647 58.431C234.647 58.799 234.992 59.098 235.682 59.328C236.388 59.5427 237.4 59.65 238.718 59.65C241.969 59.65 244.33 60.0257 245.802 60.777C247.274 61.513 248.01 62.6477 248.01 64.181C248.01 66.3277 247.228 67.8763 245.664 68.827C244.1 69.7623 241.731 70.23 238.557 70.23C236.855 70.23 235.123 70.046 233.359 69.678C231.596 69.2947 230.009 68.7427 228.598 68.022ZM91.1047 92.23C87.6394 92.23 85.0864 91.494 83.4457 90.022C81.8051 88.55 80.9847 86.4493 80.9847 83.72C80.9847 80.9753 81.8051 78.8057 83.4457 77.211C85.0864 75.6163 87.6394 74.819 91.1047 74.819C95.9501 74.819 99.1931 76.4827 100.834 79.81C99.4537 80.2853 97.8361 80.9983 95.9807 81.949C95.5361 81.0903 94.8307 80.454 93.8647 80.04C92.9141 79.626 91.9404 79.419 90.9437 79.419C89.4717 79.419 88.3754 79.81 87.6547 80.592C86.9341 81.3587 86.5737 82.3093 86.5737 83.444C86.5737 84.6707 86.9571 85.675 87.7237 86.457C88.5057 87.2237 89.6941 87.607 91.2887 87.607C92.5614 87.607 93.5734 87.4 94.3247 86.986C95.0761 86.5567 95.6281 85.882 95.9807 84.962C97.2381 85.6367 98.8481 86.3957 100.811 87.239C100.044 89.0943 98.7637 90.39 96.9697 91.126C95.1757 91.862 93.2207 92.23 91.1047 92.23ZM109.094 87.354C113.541 87.3233 117.221 87.2467 120.134 87.124C119.935 87.906 119.812 88.6573 119.766 89.378C119.72 90.0987 119.697 90.9727 119.697 92H103.482C103.605 89.0253 103.666 86.2423 103.666 83.651C103.666 81.0597 103.605 78.2767 103.482 75.302H109.094V87.354ZM136.13 79.879C134.306 79.787 132.956 79.7333 132.082 79.718V87.584C132.972 87.5687 134.321 87.515 136.13 87.423V92H122.767V87.423C124.531 87.515 125.872 87.5687 126.792 87.584V79.718C125.872 79.7333 124.531 79.787 122.767 79.879V75.302H136.13V79.879ZM144.201 87.791C150.028 87.7603 154.252 87.676 156.874 87.538C156.767 88.1667 156.698 88.8183 156.667 89.493C156.652 90.1523 156.644 90.988 156.644 92H138.773C138.896 89.0253 138.957 86.2423 138.957 83.651C138.957 81.0597 138.896 78.2767 138.773 75.302H156.644V79.465H144.201V81.673C144.937 81.6883 146.026 81.696 147.467 81.696C149.905 81.696 152.428 81.65 155.034 81.558V85.514C152.428 85.422 149.905 85.376 147.467 85.376C146.026 85.376 144.937 85.3837 144.201 85.399V87.791ZM178.816 75.325C178.708 77.9163 178.655 80.6917 178.655 83.651C178.655 86.6257 178.708 89.4087 178.816 92H170.582L165.016 79.442L165.43 92H159.519C159.641 89.0253 159.703 86.2423 159.703 83.651C159.703 81.075 159.641 78.2997 159.519 75.325H167.983L173.572 88.228L173.181 75.325H178.816ZM201.211 80.132C198.804 80.0553 196.466 80.0093 194.196 79.994V92H188.446V79.994C186.162 80.0093 183.831 80.0553 181.454 80.132V75.302H201.211V80.132ZM209.29 87.791C215.117 87.7603 219.341 87.676 221.963 87.538C221.856 88.1667 221.787 88.8183 221.756 89.493C221.741 90.1523 221.733 90.988 221.733 92H203.862C203.985 89.0253 204.046 86.2423 204.046 83.651C204.046 81.0597 203.985 78.2767 203.862 75.302H221.733V79.465H209.29V81.673C210.026 81.6883 211.115 81.696 212.556 81.696C214.994 81.696 217.516 81.65 220.123 81.558V85.514C217.516 85.422 214.994 85.376 212.556 85.376C211.115 85.376 210.026 85.3837 209.29 85.399V87.791ZM224.607 90.022C225.129 89.24 225.558 88.5117 225.895 87.837C226.248 87.1623 226.585 86.3803 226.907 85.491C227.996 86.1197 229.261 86.6103 230.702 86.963C232.144 87.3157 233.485 87.492 234.727 87.492C236 87.492 236.897 87.3847 237.418 87.17C237.94 86.94 238.2 86.6947 238.2 86.434C238.2 85.4987 236.774 85.031 233.922 85.031C230.794 85.031 228.525 84.709 227.114 84.065C225.704 83.4057 224.998 82.3477 224.998 80.891C224.998 78.821 225.857 77.2953 227.574 76.314C229.292 75.3327 231.523 74.842 234.267 74.842C235.862 74.842 237.495 75.049 239.166 75.463C240.853 75.8617 242.371 76.4137 243.72 77.119C243.276 78.131 242.808 79.3653 242.317 80.822C242.225 81.1287 242.149 81.3587 242.087 81.512C241.305 80.8833 240.125 80.362 238.545 79.948C236.966 79.5187 235.571 79.304 234.359 79.304C232.903 79.304 231.921 79.4037 231.415 79.603C230.909 79.787 230.656 80.063 230.656 80.431C230.656 80.799 231.001 81.098 231.691 81.328C232.397 81.5427 233.409 81.65 234.727 81.65C237.978 81.65 240.339 82.0257 241.811 82.777C243.283 83.513 244.019 84.6477 244.019 86.181C244.019 88.3277 243.237 89.8763 241.673 90.827C240.109 91.7623 237.74 92.23 234.566 92.23C232.864 92.23 231.132 92.046 229.368 91.678C227.605 91.2947 226.018 90.7427 224.607 90.022Z" fill="white"/>
</svg>
