<svg width="144" height="136" viewBox="0 0 144 136" fill="none" xmlns="http://www.w3.org/2000/svg">
<path fill-rule="evenodd" clip-rule="evenodd" d="M65.8125 44.5808C72.318 41.742 80.4067 40.8683 88.5948 45.444C97.1183 50.2071 99.312 59.0811 98.1407 67.4558C96.9768 75.7779 92.4613 84.1881 86.7358 88.9594C81.0982 93.6573 74.194 96.1135 68.085 96.6422C65.0269 96.9069 62.0957 96.695 59.5719 95.9861C57.0678 95.2828 54.8049 94.0415 53.3274 92.1208C51.6715 89.9681 51.6341 87.5616 52.5912 85.3792C53.4807 83.3514 55.2157 81.4974 57.1807 79.8792C61.1503 76.6101 66.8601 73.6599 71.7809 71.6468C75.534 70.1115 77.7656 67.7519 79.0324 65.5974C76.533 67.3133 73.0437 68.8423 68.3513 70.0936C53.2275 74.1266 51.9582 81.9599 52.3945 84.2285C52.5867 85.2284 52.0656 86.2291 51.1361 86.6448C50.2066 87.0605 49.1133 86.7817 48.4962 85.9718C44.4587 80.6726 44.2823 74.6599 45.5881 69.3179C46.8838 64.0173 49.6785 59.1617 51.925 55.792C54.3441 52.1632 59.3839 47.386 65.8125 44.5808ZM84.8741 61.7486C84.585 65.3326 81.861 72.2624 73.4417 75.7066C68.7124 77.6413 63.4563 80.3934 59.9691 83.2652C58.2057 84.7175 57.0896 86.0436 56.6082 87.1411C56.1947 88.084 56.2669 88.748 56.8042 89.4464C57.5199 90.3769 58.8209 91.2191 60.758 91.7631C62.6754 92.3017 65.0627 92.501 67.7068 92.2722C73.0024 91.8139 79.0379 89.6645 83.9277 85.5896C88.7294 81.5882 92.7674 74.2074 93.7966 66.8482C94.8185 59.5417 92.8451 52.844 86.455 49.273C79.7295 45.5146 73.1238 46.1762 67.5668 48.601C61.9329 51.0595 57.5419 55.2743 55.5747 58.2251C53.4348 61.4349 50.9658 65.7907 49.849 70.3594C49.2525 72.7998 49.0537 75.2365 49.464 77.5772C51.8046 73.1767 57.1015 68.5539 67.2211 65.8553C74.9237 63.8013 78.0859 61.2272 79.2355 59.335C80.2849 57.6076 79.8424 56.1228 79.1908 55.254C78.6338 54.5113 78.6047 53.4983 79.1182 52.7249C79.6317 51.9515 80.5766 51.5852 81.4773 51.8104C84.366 52.5325 86.3153 56.0807 84.8741 61.7486Z" fill="#008043"/>
<path d="M142.357 75.1206C143.138 74.796 143.068 73.6556 142.155 73.6117C137.866 73.4099 133.567 73.7345 129.26 73.524C124.926 73.3222 120.452 72.6993 116.127 73.1467C114.118 73.3573 114.144 76.0154 116.127 76.2523C123.987 77.1998 134.874 78.2174 142.357 75.1206Z" fill="#008043" stroke="#008043" stroke-width="0.579938" stroke-miterlimit="10" stroke-linecap="round" stroke-linejoin="round"/>
<path d="M25.3992 74.226C26.2063 74.0769 26.2063 72.7522 25.3992 72.6031C18.0476 71.2433 10.1346 71.6293 2.67779 71.6819C0.440737 71.6995 0.440737 75.1296 2.67779 75.1472C10.1346 75.191 18.0476 75.5858 25.3992 74.226Z" fill="#008043" stroke="#008043" stroke-width="0.579938" stroke-miterlimit="10" stroke-linecap="round" stroke-linejoin="round"/>
<path d="M70.3331 24.8878C71.1051 17.2379 70.8682 9.08804 69.2891 1.55225C69.0961 0.639888 67.8855 0.964479 67.7978 1.75403C66.8942 9.4214 67.6925 17.1941 66.7801 24.8965C66.517 27.1511 70.105 27.1599 70.3331 24.8878Z" fill="#008043" stroke="#008043" stroke-width="0.579938" stroke-miterlimit="10" stroke-linecap="round" stroke-linejoin="round"/>
<path d="M68.9121 133.828C69.07 130.143 68.6927 126.406 68.7366 122.704C68.7805 118.826 69.0875 114.949 68.4032 111.106C68.2629 110.282 66.9207 110.299 66.7627 111.106C65.3679 118.063 63.78 127.336 65.6749 134.266C66.1925 136.091 68.8419 135.652 68.9121 133.828Z" fill="#008043" stroke="#008043" stroke-width="0.579938" stroke-miterlimit="10" stroke-linecap="round" stroke-linejoin="round"/>
<path d="M111.021 41.0035C113.697 38.4506 116.328 35.9065 119.127 33.4852C122.004 30.985 125.031 28.4146 126.952 25.0809C127.444 24.2212 126.443 23.1509 125.575 23.7036C122.627 25.5546 120.004 27.897 117.285 30.0638C114.144 32.5641 110.845 35.1696 108.363 38.3453C106.898 40.2051 109.214 42.7229 111.021 41.0035Z" fill="#008043" stroke="#008043" stroke-width="0.579938" stroke-miterlimit="10" stroke-linecap="round" stroke-linejoin="round"/>
<path d="M35.391 40.3805C29.987 35.0291 23.7584 30.634 18.3982 25.2388C17.7139 24.5457 16.4945 25.4493 17.0385 26.2915C21.2669 32.8096 28.1009 36.8626 32.961 42.8106C34.3383 44.5037 36.9877 41.9684 35.391 40.3805Z" fill="#008043" stroke="#008043" stroke-width="0.579938" stroke-miterlimit="10" stroke-linecap="round" stroke-linejoin="round"/>
<path d="M26.1887 120.055C28.8293 116.8 31.1365 113.221 33.5841 109.817C35.9177 106.571 38.3916 102.948 39.0847 98.9388C39.4707 96.7017 36.4792 95.8595 35.6896 98.0001C34.1807 102.079 32.1279 105.571 29.7329 109.177C27.6888 112.265 25.3729 115.432 24.5482 119.099C24.3552 119.985 25.5308 120.879 26.1887 120.055Z" fill="#008043" stroke="#008043" stroke-width="0.579938" stroke-miterlimit="10" stroke-linecap="round" stroke-linejoin="round"/>
<path d="M123.505 120.432C119.25 117.94 115.925 114.624 112.591 111.036C109.688 107.913 106.521 103.36 102.38 101.851C100.915 101.316 99.9235 103.342 100.924 104.36C104.477 107.975 108.503 111.291 112.135 114.887C115.056 117.782 118.82 121.511 123.189 121.607C123.82 121.616 124.031 120.748 123.505 120.432Z" fill="#008043" stroke="#008043" stroke-width="0.579938" stroke-miterlimit="10" stroke-linecap="round" stroke-linejoin="round"/>
<path d="M114.644 52.8905C118.574 51.2851 124.303 50.6272 126.865 46.8724C127.312 46.2145 126.575 45.2933 125.838 45.5302C123.847 46.1706 121.961 47.0391 119.952 47.6532C117.864 48.2849 115.767 48.7849 113.732 49.5744C111.679 50.3815 112.609 53.7327 114.644 52.8905Z" fill="#008043" stroke="#008043" stroke-width="0.579938" stroke-miterlimit="10" stroke-linecap="round" stroke-linejoin="round"/>
<path d="M117.539 64.4441C121.741 63.8388 126.321 63.058 130.137 61.1193C131.26 60.549 130.409 59.0928 129.347 59.2507C125.119 59.8648 120.829 60.3911 116.635 61.1631C114.442 61.5667 115.416 64.7599 117.539 64.4441Z" fill="#008043" stroke="#008043" stroke-width="0.579938" stroke-miterlimit="10" stroke-linecap="round" stroke-linejoin="round"/>
<path d="M128.742 88.7797C126.742 87.9287 124.812 86.8936 122.882 85.8847C120.952 84.8846 118.952 83.4196 116.846 82.8669C115.478 82.5072 114.118 84.4109 115.364 85.411C117.092 86.7883 119.382 87.5515 121.408 88.4112C123.654 89.3675 125.917 89.9903 128.33 90.2886C129.119 90.3939 129.47 89.0867 128.742 88.7797Z" fill="#008043" stroke="#008043" stroke-width="0.579938" stroke-miterlimit="10" stroke-linecap="round" stroke-linejoin="round"/>
<path d="M123.355 101.492C118.855 98.9036 114.925 95.9998 110.845 92.8241C109.196 91.5433 107.161 93.4908 108.538 95.1401C111.907 99.1756 117.697 101.746 122.61 103.272C123.671 103.606 124.303 102.044 123.355 101.492Z" fill="#008043" stroke="#008043" stroke-width="0.579938" stroke-miterlimit="10" stroke-linecap="round" stroke-linejoin="round"/>
<path d="M101.652 118.353C100.809 116.782 99.7566 115.308 98.8881 113.738C98.0283 112.185 97.3967 110.325 96.3879 108.878C95.4316 107.518 92.8963 108.317 93.5367 110.08C94.1771 111.852 95.5457 113.536 96.6422 115.054C97.7476 116.589 98.9846 118.388 100.643 119.361C101.301 119.747 101.994 118.993 101.652 118.353Z" fill="#008043" stroke="#008043" stroke-width="0.579938" stroke-miterlimit="10" stroke-linecap="round" stroke-linejoin="round"/>
<path d="M86.1241 123.634C85.7996 121.985 85.3434 120.379 85.0626 118.721C84.8082 117.212 84.9135 115.545 84.2643 114.151C83.7555 113.054 81.8518 113.3 81.6325 114.493C81.3342 116.116 81.9659 117.888 82.387 119.458C82.8519 121.23 83.4748 123.064 84.6503 124.494C85.2557 125.231 86.2733 124.415 86.1241 123.634Z" fill="#008043" stroke="#008043" stroke-width="0.579938" stroke-miterlimit="10" stroke-linecap="round" stroke-linejoin="round"/>
<path d="M99.7743 33.7047C100.95 31.0992 101.818 28.3972 103.415 26.0022C103.915 25.2565 102.897 24.1775 102.152 24.7302C99.6865 26.5812 98.5197 29.4938 97.1073 32.1431C96.1599 33.924 98.9759 35.4856 99.7743 33.7047Z" fill="#008043" stroke="#008043" stroke-width="0.579938" stroke-miterlimit="10" stroke-linecap="round" stroke-linejoin="round"/>
<path d="M85.1939 28.0374C86.8695 24.388 86.5537 20.1507 86.5449 16.2118C86.5449 15.2906 85.2115 14.8608 84.7641 15.7293C83.0446 19.0541 83.2376 23.1422 81.948 26.6689C81.2637 28.5462 84.3605 29.8621 85.1939 28.0374Z" fill="#008043" stroke="#008043" stroke-width="0.579938" stroke-miterlimit="10" stroke-linecap="round" stroke-linejoin="round"/>
<path d="M57.06 25.7126C55.709 21.835 53.7176 18.1417 52.1298 14.3519C51.735 13.4044 50.2699 13.4483 50.2524 14.6063C50.1822 18.747 52.3666 22.8 53.7088 26.6337C54.437 28.7392 57.8057 27.8356 57.06 25.7126Z" fill="#008043" stroke="#008043" stroke-width="0.579938" stroke-miterlimit="10" stroke-linecap="round" stroke-linejoin="round"/>
<path d="M47.9187 29.7831C45.1027 26.6073 42.5234 23.4053 40.0495 19.9576C39.6197 19.3611 38.3652 19.4576 38.4792 20.3875C39.0319 24.844 42.6287 28.9497 45.5062 32.2044C46.9625 33.8536 49.375 31.4236 47.9187 29.7831Z" fill="#008043" stroke="#008043" stroke-width="0.579938" stroke-miterlimit="10" stroke-linecap="round" stroke-linejoin="round"/>
<path d="M29.4782 46.9336C28.3027 45.9072 26.6446 45.644 25.241 45.0036C23.5741 44.2492 22.1618 43.1613 20.609 42.2051C19.6528 41.6173 18.3807 42.8104 19.0298 43.7842C20.065 45.337 21.6178 46.4423 23.1794 47.4249C24.6093 48.3285 26.6446 49.6619 28.3816 49.5654C29.6361 49.504 30.566 47.8811 29.4782 46.9336Z" fill="#008043" stroke="#008043" stroke-width="0.579938" stroke-miterlimit="10" stroke-linecap="round" stroke-linejoin="round"/>
<path d="M25.9342 60.5401C23.9954 59.3558 21.5127 59.1891 19.3107 58.7855C17.1088 58.382 14.8893 57.7767 12.6435 57.7153C11.7223 57.6889 11.4416 58.9434 12.1873 59.3996C14.0997 60.5839 16.3631 61.0664 18.5124 61.6718C20.6793 62.2771 22.9251 63.2772 25.1797 63.3386C26.7149 63.3912 27.1799 61.3033 25.9342 60.5401Z" fill="#008043" stroke="#008043" stroke-width="0.579938" stroke-miterlimit="10" stroke-linecap="round" stroke-linejoin="round"/>
<path d="M16.7404 87.1568C18.6704 86.6918 20.5214 85.7619 22.4427 85.2092C24.1972 84.7092 26.8466 84.7443 27.8818 83.0599C28.2678 82.4283 27.987 81.7001 27.4256 81.3053C25.7061 80.1035 22.6971 81.6475 20.9776 82.323C19.0652 83.0687 16.8544 84.0161 15.7052 85.797C15.249 86.5076 15.9947 87.3322 16.7404 87.1568Z" fill="#008043" stroke="#008043" stroke-width="0.579938" stroke-miterlimit="10" stroke-linecap="round" stroke-linejoin="round"/>
<path d="M23.1358 98.4209C24.2587 97.5699 25.1272 96.3944 26.1448 95.4118C27.3292 94.2714 28.6801 93.359 29.9083 92.2799C31.5752 90.8324 29.1627 88.4726 27.5046 89.8762C26.2764 90.9114 25.136 92.1308 24.0657 93.3239C23.0744 94.4205 21.9251 95.7539 21.5918 97.2278C21.4076 98.0349 22.3462 99.035 23.1358 98.4209Z" fill="#008043" stroke="#008043" stroke-width="0.579938" stroke-miterlimit="10" stroke-linecap="round" stroke-linejoin="round"/>
<path d="M42.6727 120.791C43.9447 118.818 44.708 116.484 45.7695 114.387C46.6468 112.659 48.0943 111.019 48.3311 109.08C48.4803 107.869 46.831 107.027 45.8835 107.676C44.1729 108.843 43.5325 111.273 42.7692 113.124C41.8569 115.352 40.8392 117.888 40.9708 120.326C41.0234 121.239 42.1726 121.563 42.6727 120.791Z" fill="#008043" stroke="#008043" stroke-width="0.579938" stroke-miterlimit="10" stroke-linecap="round" stroke-linejoin="round"/>
<path d="M56.5863 123.739C57.4987 122.344 57.9724 120.721 58.4462 119.133C58.9374 117.528 59.5515 115.905 59.6568 114.22C59.7884 112.159 56.946 112.089 56.2968 113.764C55.7441 115.194 55.7002 116.8 55.4371 118.309C55.1563 119.94 54.744 121.563 54.6738 123.221C54.63 124.3 56.06 124.546 56.5863 123.739Z" fill="#008043" stroke="#008043" stroke-width="0.579938" stroke-miterlimit="10" stroke-linecap="round" stroke-linejoin="round"/>
</svg>
