<svg width="134" height="134" viewBox="0 0 134 134" fill="none" xmlns="http://www.w3.org/2000/svg">
<path d="M69.2599 43.3099C69.0089 41.5097 68.732 39.6661 68.1261 37.9437C67.4337 35.9876 64.7939 36.4031 64.6035 38.4198C64.4477 40.0729 64.5515 41.7434 64.5775 43.4052C64.6035 44.9285 64.3438 46.547 65.1055 47.9231C65.919 49.3945 68.2819 49.4465 69.0782 47.9231C69.8572 46.4344 69.485 44.9025 69.2599 43.3099Z" fill="#9B1D2B"/>
<path d="M69.684 95.4575C69.6753 94.0208 69.5195 92.5061 69.1993 91.104C68.7925 89.3556 66.0834 89.3556 65.6766 91.104C65.391 92.333 65.3217 93.588 65.1486 94.843C64.9669 96.1413 64.6293 97.5088 64.8803 98.7985C65.2785 100.832 68.1001 100.928 69.0695 99.3437C69.7705 98.2099 69.6926 96.7645 69.684 95.4575Z" fill="#9B1D2B"/>
<path d="M44.5062 66.6444C41.6413 66.5492 38.1792 66.7483 35.4702 67.735C34.2238 68.1937 34.2238 69.8122 35.4702 70.2709C38.1792 71.2576 41.65 71.4567 44.5062 71.3615C47.5441 71.2576 47.5441 66.7483 44.5062 66.6444Z" fill="#9B1D2B"/>
<path d="M96.6362 66.3237C95.3206 66.4795 94.0223 66.7478 92.7068 66.9036C91.4518 67.0507 90.1448 67.146 88.9158 67.4749C87.4011 67.8903 87.4011 70.1147 88.9158 70.5301C91.5123 71.2399 94.6109 71.3004 97.2507 70.9023C99.8473 70.5215 99.2414 66.0208 96.6362 66.3237Z" fill="#9B1D2B"/>
<path d="M51.6639 50.7273C49.4482 48.953 47.5181 46.7026 44.9561 45.4044C43.6752 44.7552 41.797 46.1833 42.801 47.5595C44.4801 49.8445 46.3583 52.0256 48.4701 53.9211C50.6599 55.8858 53.9056 52.5276 51.6639 50.7273Z" fill="#9B1D2B"/>
<path d="M89.1493 46.3391C87.9376 46.5295 86.6566 47.9316 85.6872 48.6154C84.3803 49.5501 83.0041 50.2166 81.9655 51.3158C80.2085 53.194 82.4242 56.0588 84.6918 54.8471C86.1026 54.0941 87.2278 52.6487 88.3184 51.5062C89.2618 50.5195 90.9063 49.152 90.8976 47.6633C90.8889 46.7026 90.0235 46.2092 89.1493 46.3391Z" fill="#9B1D2B"/>
<path d="M51.6291 85.8587C50.8329 85.0624 49.2749 84.9326 48.496 85.8587C47.5699 86.9579 46.7996 88.187 45.9773 89.3554C45.1118 90.5845 44.203 91.7615 43.45 93.0685C42.9567 93.9253 43.7876 95.2582 44.8262 94.8514C47.5958 93.7695 49.7856 91.2509 51.6291 88.9919C52.3908 88.0571 52.5466 86.7762 51.6291 85.8587Z" fill="#9B1D2B"/>
<path d="M91.0622 89.1654C90.1101 88.1008 88.7513 87.3045 87.5828 86.4996C86.3105 85.6081 85.2805 84.5348 83.6101 84.8984C82.5974 85.1147 82.0176 86.2832 82.2859 87.2353C82.7186 88.7932 84.2506 89.2779 85.5488 89.979C86.951 90.732 88.431 91.5023 90.0236 91.6667C91.3998 91.8139 91.8325 90.0222 91.0622 89.1654Z" fill="#9B1D2B"/>
<path d="M57.5926 44.2788C56.7444 42.7642 56.0173 41.1716 54.9354 39.8041C54.1478 38.8088 52.2696 39.6137 52.3995 40.8601C52.5639 42.4353 53.1525 43.8721 53.7151 45.3434C54.2777 46.8235 54.745 48.8401 55.9567 49.9134C57.1944 51.0126 59.3929 50.3375 59.3496 48.5112C59.315 46.9446 58.3369 45.5944 57.5926 44.2788Z" fill="#9B1D2B"/>
<path d="M79.3345 39.4585C78.0103 40.4452 77.1188 42.0031 76.2273 43.3793C75.3445 44.7295 73.4836 46.6856 74.0981 48.3993C74.4011 49.2302 75.1454 49.6976 76.0196 49.4898C77.7073 49.1004 78.2526 46.9452 78.971 45.5604C79.724 44.089 80.8492 42.4791 81.1261 40.8347C81.2819 39.9172 80.2952 38.7487 79.3345 39.4585Z" fill="#9B1D2B"/>
<path d="M46.6007 57.859C45.4149 57.4955 44.1513 57.3484 42.9395 57.0887C41.6413 56.8117 40.2737 56.4223 38.9408 56.4915C37.4781 56.5694 37.1579 58.2658 38.2398 59.0794C39.1832 59.7891 40.343 60.1353 41.4335 60.5421C42.7405 61.0268 44.1512 61.5375 45.5274 61.7279C48.0288 62.0741 49.1539 58.6293 46.6007 57.859Z" fill="#9B1D2B"/>
<path d="M44.3155 77.2208C42.3508 78.2075 39.8667 79.7308 38.7848 81.7042C38.3694 82.4572 39.0444 83.392 39.9013 83.1583C40.9053 82.8813 41.866 82.3187 42.7748 81.8081C43.8394 81.2022 44.9646 80.7262 46.0811 80.2415C48.1064 79.3673 46.3581 76.1995 44.3155 77.2208Z" fill="#9B1D2B"/>
<path d="M56.58 88.715C55.9914 90.1085 55.9827 91.6491 55.775 93.1464C55.5846 94.514 55.1172 96.1152 55.6278 97.4394C55.9135 98.1838 56.805 98.5213 57.4281 97.9155C58.4321 96.9288 58.7351 95.3795 59.1332 94.0726C59.5573 92.705 60.2584 91.1298 60.1372 89.6844C60.0074 88.0139 57.3935 86.7849 56.58 88.715Z" fill="#9B1D2B"/>
<path d="M79.447 91.7965C78.8498 90.3684 78.3738 88.4469 77.2054 87.391C75.6215 85.9629 73.5355 87.391 73.8471 89.3471C74.0722 90.7579 75.3012 92.0475 76.0801 93.2159C76.8678 94.3844 77.6294 95.5615 78.694 96.4963C79.3432 97.0675 80.4943 96.7213 80.4683 95.7606C80.4337 94.3411 79.9836 93.0948 79.447 91.7965Z" fill="#9B1D2B"/>
<path d="M97.043 80.3372C96.6102 78.736 94.8705 78.2945 93.4857 77.7406C91.5902 76.9789 89.6341 75.8711 87.6607 75.3951C85.194 74.7978 83.8611 78.0695 85.9644 79.4284C87.6608 80.5189 89.8678 80.9776 91.7893 81.5316C93.3905 81.9903 95.3639 82.6914 96.7487 81.4623C97.0516 81.194 97.1468 80.718 97.043 80.3372Z" fill="#9B1D2B"/>
<path d="M94.7667 55.9293C92.4125 56.5698 90.0064 57.2189 87.7041 58.0066C84.6834 59.0365 86.4491 63.3468 89.4092 62.0572C91.7288 61.0445 94.057 59.5818 95.866 57.8162C96.6796 57.0112 95.8486 55.6264 94.7667 55.9293Z" fill="#9B1D2B"/>
<path d="M68.3942 24.7965C68.299 24.1734 68.273 23.5069 67.8835 22.9876C67.2517 22.148 66.2217 22.148 65.5986 22.9876C65.2091 23.5069 65.1831 24.182 65.0879 24.7965C64.9841 25.4543 64.9408 26.1121 64.8888 26.7785C64.6724 29.1674 68.8097 29.1674 68.6019 26.7785C68.5413 26.1121 68.498 25.4543 68.3942 24.7965Z" fill="#9B1D2B"/>
<path d="M67.9528 11.9263C67.5114 11.0262 65.9535 11.2166 65.7717 12.2119C65.6592 12.8178 65.564 13.4064 65.512 14.0295C65.4601 14.6873 65.2956 15.3538 65.3216 16.0115C65.3908 18.3052 68.8096 18.3052 68.8875 16.0115C68.9135 14.6527 68.5327 13.138 67.9528 11.9263Z" fill="#9B1D2B"/>
<path d="M68.0308 0.518628C67.5028 -0.277649 66.3517 -0.130495 66.0487 0.778299C65.6593 1.9554 65.6765 3.22769 65.365 4.43076C65.114 5.39149 65.6679 6.40417 66.6373 6.67248C67.8057 6.99272 68.9049 6.09258 68.9482 4.91548C68.9828 3.49603 68.827 1.7217 68.0308 0.518628Z" fill="#9B1D2B"/>
<path d="M65.4343 107.747C65.5901 109.314 65.7199 110.881 65.919 112.439C66.0834 113.728 67.7626 114.066 68.2213 112.75C68.7752 111.149 68.931 109.427 69.0954 107.747C69.3378 105.385 65.192 105.385 65.4343 107.747Z" fill="#9B1D2B"/>
<path d="M68.403 117.831C67.7625 116.715 66.0748 116.715 65.443 117.831C64.941 118.705 65.3045 119.77 65.443 120.713C65.5382 121.354 65.5901 122.133 65.9796 122.661C66.4902 123.353 67.3558 123.353 67.8664 122.661C68.2646 122.124 68.3078 121.345 68.403 120.713C68.5329 119.77 68.8964 118.705 68.403 117.831Z" fill="#9B1D2B"/>
<path d="M68.8356 130.398C69.3203 129.325 68.9741 128.018 67.7278 127.672C66.6372 127.369 65.287 128.243 65.3822 129.455C65.4861 130.796 65.261 132.138 65.8496 133.393C66.2391 134.215 67.5979 134.189 67.9874 133.393C68.2557 132.856 68.3769 132.302 68.5327 131.723C68.6019 131.437 68.6625 131.151 68.7318 130.874C68.7491 130.805 68.9654 130.104 68.8356 130.398Z" fill="#9B1D2B"/>
<path d="M109.204 68.4011C109.818 68.3059 110.493 68.2799 111.013 67.8904C111.852 67.2586 111.852 66.2287 111.013 65.6055C110.493 65.216 109.818 65.19 109.204 65.0948C108.546 64.991 107.888 64.9477 107.222 64.8871C104.833 64.6707 104.833 68.8166 107.222 68.6002C107.879 68.5482 108.546 68.505 109.204 68.4011Z" fill="#9B1D2B"/>
<path d="M122.065 67.9511C122.974 67.5097 122.775 65.9517 121.779 65.77C121.173 65.6575 120.585 65.5622 119.97 65.5103C119.313 65.4584 118.646 65.2939 117.988 65.3199C115.695 65.3891 115.695 68.8079 117.988 68.8858C119.347 68.9205 120.853 68.5396 122.065 67.9511Z" fill="#9B1D2B"/>
<path d="M133.481 68.0378C134.277 67.5099 134.13 66.3587 133.221 66.0558C132.044 65.6663 130.772 65.6836 129.569 65.372C128.608 65.121 127.596 65.675 127.327 66.6443C127.007 67.8128 127.907 68.912 129.084 68.9553C130.495 68.9899 132.269 68.8341 133.481 68.0378Z" fill="#9B1D2B"/>
<path d="M26.2437 65.4326C24.6771 65.5884 23.1105 65.7183 21.5525 65.926C20.2629 66.0904 19.9254 67.7695 21.2409 68.2283C22.8422 68.7909 24.5646 68.938 26.2437 69.1111C28.6065 69.3361 28.6065 65.199 26.2437 65.4326Z" fill="#9B1D2B"/>
<path d="M16.1603 68.4013C17.2768 67.7608 17.2768 66.0731 16.1603 65.4413C15.2861 64.9393 14.2215 65.3028 13.2781 65.4413C12.6376 65.5365 11.8587 65.5884 11.322 65.9779C10.6296 66.4885 10.6296 67.3541 11.322 67.8647C11.8587 68.2542 12.6376 68.3061 13.2781 68.4013C14.2215 68.5398 15.2861 68.9033 16.1603 68.4013Z" fill="#9B1D2B"/>
<path d="M3.60164 68.8339C4.67489 69.3186 5.98184 68.9724 6.32805 67.726C6.63098 66.6355 5.75681 65.2853 4.54508 65.3805C3.20353 65.4844 1.86199 65.2593 0.606984 65.8479C-0.215259 66.2374 -0.189293 67.5962 0.606984 67.9857C1.14361 68.254 1.69753 68.3752 2.27743 68.531C2.56305 68.6002 2.84865 68.6608 3.12562 68.7301C3.18621 68.756 3.89592 68.9724 3.60164 68.8339Z" fill="#9B1D2B"/>
<path d="M97.8306 38.1515C98.2028 37.6495 98.6615 37.1562 98.7481 36.507C98.8952 35.4598 98.1768 34.7413 97.1296 34.8885C96.4891 34.9837 95.9958 35.4424 95.4851 35.8146C94.9485 36.2041 94.4551 36.6455 93.9445 37.0696C92.1009 38.6102 95.0264 41.5357 96.567 39.6921C96.9998 39.1815 97.4325 38.6795 97.8306 38.1515Z" fill="#9B1D2B"/>
<path d="M106.607 28.7345C106.936 27.7824 105.699 26.8217 104.859 27.3929C104.348 27.7391 103.864 28.094 103.388 28.4921C102.886 28.9162 102.306 29.2797 101.856 29.7558C100.28 31.4262 102.704 33.8497 104.374 32.2744C105.37 31.3397 106.166 30.0068 106.607 28.7345Z" fill="#9B1D2B"/>
<path d="M114.735 20.7201C114.925 19.7854 114.008 19.0756 113.151 19.4997C112.043 20.0537 111.151 20.9711 110.078 21.603C109.221 22.105 108.901 23.2128 109.394 24.087C109.992 25.1429 111.411 25.2814 112.268 24.4765C113.306 23.5071 114.449 22.1309 114.735 20.7201Z" fill="#9B1D2B"/>
<path d="M37.0713 94.7051C36.076 95.9255 35.0547 97.1199 34.1026 98.3662C33.3063 99.3962 34.2584 100.824 35.5134 100.218C37.0367 99.4827 38.3696 98.3749 39.6765 97.3016C41.5114 95.8043 38.5773 92.8702 37.0713 94.7051Z" fill="#9B1D2B"/>
<path d="M32.0427 103.94C32.3803 102.702 31.1859 101.508 29.9482 101.845C28.9788 102.113 28.4768 103.117 27.9056 103.888C27.5248 104.407 27.0054 104.996 26.9016 105.653C26.7717 106.51 27.3776 107.116 28.2345 106.986C28.8923 106.882 29.4808 106.372 29.9915 105.991C30.7704 105.402 31.7831 104.909 32.0427 103.94Z" fill="#9B1D2B"/>
<path d="M23.4743 113.123C24.5821 112.707 25.2486 111.539 24.6167 110.414C24.0542 109.427 22.4876 109.09 21.6913 110.016C20.8258 111.037 19.7092 111.825 19.2332 113.132C18.9216 113.988 19.9083 114.932 20.7478 114.646C21.3104 114.456 21.7951 114.144 22.3144 113.85C22.5654 113.703 22.8078 113.538 23.0588 113.391C23.1194 113.357 23.7685 113.01 23.4743 113.123Z" fill="#9B1D2B"/>
<path d="M95.8484 97.8377C96.3504 98.2099 96.8438 98.6686 97.4929 98.7552C98.5315 98.9023 99.2586 98.1753 99.1114 97.1367C99.0162 96.4962 98.5661 96.0028 98.1853 95.4922C97.7958 94.9555 97.3544 94.4622 96.9303 93.9515C95.3897 92.108 92.4642 95.0334 94.3077 96.5741C94.8184 97.0068 95.3118 97.4396 95.8484 97.8377Z" fill="#9B1D2B"/>
<path d="M105.265 106.614C106.217 106.942 107.178 105.705 106.607 104.865C106.261 104.363 105.906 103.87 105.508 103.402C105.083 102.9 104.72 102.321 104.244 101.862C102.574 100.287 100.15 102.701 101.725 104.38C102.66 105.376 103.993 106.172 105.265 106.614Z" fill="#9B1D2B"/>
<path d="M113.271 114.741C114.215 114.932 114.924 114.014 114.492 113.157C113.938 112.049 113.02 111.158 112.388 110.085C111.886 109.228 110.779 108.899 109.904 109.401C108.848 110.007 108.71 111.418 109.515 112.274C110.493 113.313 111.86 114.456 113.271 114.741Z" fill="#9B1D2B"/>
<path d="M39.2868 37.0782C38.0664 36.0828 36.8719 35.0615 35.6256 34.1094C34.5956 33.3132 33.1675 34.2652 33.7734 35.5202C34.5091 37.0436 35.6256 38.3765 36.6902 39.6834C38.1962 41.5096 41.1217 38.5842 39.2868 37.0782Z" fill="#9B1D2B"/>
<path d="M30.0604 32.0493C31.2981 32.3869 32.4925 31.1925 32.1549 29.9548C31.8953 28.9854 30.8826 28.4834 30.1123 27.9122C29.593 27.5313 29.0045 27.012 28.3553 26.9082C27.4985 26.7783 26.8926 27.3842 27.0224 28.2411C27.1263 28.8989 27.637 29.4874 28.0178 30.0067C28.589 30.777 29.091 31.781 30.0604 32.0493Z" fill="#9B1D2B"/>
<path d="M20.8686 23.4725C21.284 24.5804 22.4525 25.2468 23.5777 24.615C24.5644 24.0611 24.9019 22.4858 23.9758 21.6896C22.9545 20.8154 22.1669 19.7075 20.8599 19.2315C20.0031 18.9199 19.0597 19.9066 19.3453 20.7461C19.5443 21.3174 19.8473 21.7934 20.1415 22.3127C20.2887 22.5637 20.4532 22.8061 20.6003 23.0571C20.6349 23.1177 20.9811 23.7754 20.8686 23.4725Z" fill="#9B1D2B"/>
<path d="M84.8741 28.7431C85.0299 28.1372 85.2722 27.5054 85.1164 26.8735C84.8654 25.8522 83.922 25.4454 83.0132 25.9734C82.4506 26.3023 82.165 26.9082 81.8361 27.4448C81.4813 28.0074 81.187 28.6046 80.8668 29.1845C79.7329 31.2963 83.5412 32.9235 84.2769 30.6472C84.4846 30.0154 84.7097 29.3835 84.8741 28.7431Z" fill="#9B1D2B"/>
<path d="M89.5221 16.7384C89.4788 15.7344 87.9642 15.3016 87.4016 16.1412C87.064 16.6519 86.7352 17.1625 86.4495 17.7078C86.1379 18.2877 85.7311 18.8416 85.4974 19.4561C84.6579 21.594 87.8084 22.9442 88.7691 20.8583C89.3404 19.6206 89.5827 18.0799 89.5221 16.7384Z" fill="#9B1D2B"/>
<path d="M94.0833 6.27436C93.9102 5.33094 92.7936 5.0107 92.1531 5.72908C91.3309 6.65518 90.8462 7.84095 90.0845 8.81899C89.4787 9.60661 89.5912 10.7578 90.3788 11.3809C91.3309 12.1426 92.6898 11.7445 93.1918 10.6712C93.789 9.39024 94.3343 7.69381 94.0833 6.27436Z" fill="#9B1D2B"/>
<path d="M49.5352 103.853C49.0678 105.35 48.5658 106.848 48.1417 108.362C47.7868 109.609 49.1976 110.587 50.141 109.557C51.2835 108.302 52.0971 106.778 52.9107 105.298C54.0619 103.221 50.2536 101.585 49.5352 103.853Z" fill="#9B1D2B"/>
<path d="M48.306 114.291C48.1588 113.019 46.6095 112.352 45.5796 113.122C44.7746 113.728 44.6881 114.853 44.4457 115.78C44.2813 116.403 44.0216 117.138 44.1688 117.788C44.3678 118.627 45.1555 118.965 45.8998 118.532C46.4711 118.194 46.8259 117.493 47.1635 116.948C47.6655 116.126 48.4185 115.295 48.306 114.291Z" fill="#9B1D2B"/>
<path d="M43.7706 126.01C44.6448 125.214 44.8352 123.872 43.8225 123.076C42.9397 122.375 41.3558 122.643 40.9663 123.794C40.5335 125.067 39.7978 126.209 39.8498 127.603C39.8844 128.511 41.1394 129.022 41.8145 128.442C42.2732 128.053 42.6022 127.585 42.9657 127.118C43.1474 126.884 43.3119 126.65 43.485 126.417C43.5282 126.356 44.0043 125.794 43.7706 126.01Z" fill="#9B1D2B"/>
<path d="M105.257 84.8812C105.862 85.037 106.494 85.2793 107.117 85.1322C108.139 84.8812 108.546 83.9378 108.018 83.029C107.689 82.4664 107.083 82.1808 106.546 81.8519C105.984 81.5057 105.395 81.2027 104.807 80.8825C102.695 79.7487 101.067 83.5483 103.344 84.2927C103.984 84.4917 104.607 84.7081 105.257 84.8812Z" fill="#9B1D2B"/>
<path d="M117.261 89.5285C118.265 89.4852 118.698 87.9706 117.859 87.408C117.348 87.0704 116.837 86.7502 116.292 86.4559C115.712 86.153 115.158 85.7375 114.544 85.5038C112.406 84.6643 111.056 87.8061 113.142 88.7755C114.379 89.3467 115.911 89.5891 117.261 89.5285Z" fill="#9B1D2B"/>
<path d="M127.725 94.0812C128.669 93.9081 128.98 92.7916 128.271 92.1511C127.344 91.3289 126.159 90.8442 125.181 90.0825C124.393 89.4767 123.242 89.5892 122.619 90.3681C121.857 91.3202 122.255 92.6877 123.328 93.1811C124.601 93.7869 126.297 94.3409 127.725 94.0812Z" fill="#9B1D2B"/>
<path d="M30.1379 49.542C28.6406 49.0747 27.1432 48.5726 25.6286 48.1485C24.3822 47.7937 23.4042 49.2045 24.4341 50.1479C25.6891 51.2904 27.2124 52.104 28.6925 52.9175C30.7784 54.06 32.4056 50.2518 30.1379 49.542Z" fill="#9B1D2B"/>
<path d="M19.6999 48.3125C20.9722 48.1653 21.6386 46.6074 20.8597 45.5861C20.2538 44.7811 19.1286 44.6946 18.2025 44.4522C17.5793 44.2878 16.8436 44.0281 16.1945 44.1839C15.355 44.383 15.0174 45.1706 15.4588 45.915C15.7964 46.4862 16.4975 46.8411 17.0428 47.1786C17.865 47.672 18.7046 48.425 19.6999 48.3125Z" fill="#9B1D2B"/>
<path d="M7.98087 43.7681C8.77714 44.6423 10.1187 44.8327 10.915 43.8201C11.6247 42.9372 11.3564 41.3533 10.1966 40.9639C8.92428 40.5311 7.77317 39.7954 6.38834 39.8473C5.47955 39.882 4.96887 41.1369 5.54876 41.8121C5.93825 42.2708 6.40565 42.5997 6.87303 42.9632C7.10672 43.145 7.34906 43.3094 7.5741 43.4825C7.63469 43.5258 8.19725 44.0105 7.98087 43.7681Z" fill="#9B1D2B"/>
<path d="M106.685 52.5883C107.221 52.2681 107.836 51.9998 108.182 51.4458C108.727 50.5457 108.346 49.5936 107.325 49.3253C106.702 49.1609 106.061 49.3859 105.456 49.5244C104.806 49.6715 104.183 49.8792 103.543 50.0697C101.24 50.7621 102.79 54.605 104.928 53.5144C105.516 53.2115 106.113 52.9259 106.685 52.5883Z" fill="#9B1D2B"/>
<path d="M118.464 47.3867C119.14 46.6424 118.378 45.2662 117.391 45.4653C116.785 45.5864 116.197 45.7163 115.608 45.898C114.976 46.0884 114.301 46.1923 113.695 46.4606C111.592 47.3781 112.865 50.5545 115.02 49.7669C116.301 49.2995 117.556 48.3821 118.464 47.3867Z" fill="#9B1D2B"/>
<path d="M129.084 43.2149C129.629 42.4273 129.058 41.4146 128.106 41.4665C126.868 41.5444 125.691 42.0291 124.462 42.1936C123.476 42.3234 122.74 43.2149 122.852 44.2102C122.991 45.4133 124.237 46.1057 125.345 45.6989C126.678 45.2056 128.262 44.4006 129.084 43.2149Z" fill="#9B1D2B"/>
<path d="M28.5887 80.7182C27.1952 81.4452 25.7844 82.1463 24.4169 82.9166C23.283 83.5484 23.5946 85.2362 24.9881 85.1669C26.6845 85.089 28.3377 84.5957 29.9562 84.1196C32.2412 83.4618 30.7005 79.619 28.5887 80.7182Z" fill="#9B1D2B"/>
<path d="M20.3404 87.2267C21.1367 86.2227 20.5048 84.6561 19.2412 84.4743C18.2458 84.3359 17.389 85.0715 16.5667 85.5476C16.0128 85.8765 15.3031 86.214 14.9568 86.7766C14.4981 87.5123 14.8184 88.3086 15.6579 88.525C16.2984 88.6894 17.0427 88.4471 17.6659 88.2999C18.592 88.0749 19.7172 88.0143 20.3404 87.2267Z" fill="#9B1D2B"/>
<path d="M8.84623 92.3071C10.0233 92.359 11.1052 91.5454 10.9581 90.2645C10.8283 89.1393 9.52135 88.2132 8.4308 88.7498C7.22773 89.347 5.89482 89.6327 4.9514 90.6453C4.33688 91.3118 4.86489 92.5667 5.74772 92.636C6.34492 92.6793 6.90747 92.5927 7.49603 92.5148C7.78165 92.4802 8.07592 92.4283 8.36154 92.385C8.42213 92.3764 9.16648 92.3158 8.84623 92.3071Z" fill="#9B1D2B"/>
<path d="M81.4026 106.692C81.7229 107.229 81.9912 107.843 82.5451 108.181C83.4452 108.726 84.3973 108.345 84.6742 107.332C84.8387 106.709 84.6137 106.069 84.4665 105.463C84.3194 104.822 84.1117 104.191 83.9212 103.55C83.2288 101.248 79.3859 102.789 80.4765 104.935C80.7794 105.524 81.0651 106.121 81.4026 106.692Z" fill="#9B1D2B"/>
<path d="M86.6047 118.472C87.3491 119.147 88.7252 118.385 88.5261 117.399C88.405 116.793 88.2751 116.204 88.0934 115.616C87.903 114.984 87.7992 114.309 87.5395 113.703C86.622 111.6 83.4456 112.872 84.2332 115.027C84.7006 116.299 85.6094 117.563 86.6047 118.472Z" fill="#9B1D2B"/>
<path d="M90.7851 129.091C91.5727 129.636 92.5854 129.065 92.5334 128.113C92.4555 126.875 91.9622 125.698 91.8064 124.469C91.6852 123.482 90.7937 122.747 89.7897 122.859C88.5867 122.998 87.8942 124.244 88.301 125.352C88.7857 126.676 89.5994 128.269 90.7851 129.091Z" fill="#9B1D2B"/>
<path d="M53.2819 28.5962C52.5549 27.2028 51.8451 25.792 51.0835 24.4244C50.4516 23.2906 48.7639 23.6022 48.8331 24.9957C48.911 26.6921 49.413 28.3452 49.8804 29.9637C50.5296 32.2401 54.3811 30.6995 53.2819 28.5962Z" fill="#9B1D2B"/>
<path d="M46.7736 20.3476C47.7776 21.1438 49.3442 20.512 49.5173 19.2484C49.6558 18.253 48.9201 17.3961 48.4441 16.5652C48.1238 16.0113 47.7776 15.3016 47.215 14.9554C46.4794 14.4966 45.6831 14.8255 45.4667 15.6564C45.3022 16.2969 45.5446 17.0413 45.6917 17.6644C45.9254 18.5906 45.986 19.7157 46.7736 20.3476Z" fill="#9B1D2B"/>
<path d="M41.693 8.84477C41.6411 10.0219 42.4546 11.1038 43.7356 10.9566C44.8608 10.8268 45.7869 9.51989 45.2503 8.42934C44.6531 7.22627 44.3674 5.89336 43.3461 4.94994C42.6883 4.33542 41.4333 4.8634 41.3641 5.74623C41.3208 6.34344 41.4074 6.90601 41.4853 7.49457C41.5199 7.78019 41.5718 8.07446 41.6151 8.36009C41.6151 8.42933 41.6757 9.16502 41.693 8.84477Z" fill="#9B1D2B"/>
<path fill-rule="evenodd" clip-rule="evenodd" d="M63.9663 55.7586C67.435 54.2714 71.7477 53.8137 76.1135 56.2108C80.6581 58.7061 81.8277 63.355 81.2032 67.7424C80.5826 72.1022 78.175 76.5082 75.1223 79.0078C72.1164 81.4689 68.4352 82.7557 65.178 83.0327C63.5474 83.1713 61.9846 83.0603 60.6389 82.6889C59.3038 82.3205 58.0972 81.6702 57.3094 80.664C56.4265 79.5362 56.4066 78.2755 56.9169 77.1322C57.3912 76.0698 58.3163 75.0986 59.3639 74.2508C61.4805 72.5382 64.5249 70.9926 67.1485 69.938C69.1496 69.1337 70.3395 67.8975 71.015 66.7688C69.6823 67.6678 67.8219 68.4688 65.32 69.1243C57.2562 71.2371 56.5794 75.3408 56.812 76.5293C56.9145 77.0532 56.6367 77.5774 56.1411 77.7952C55.6455 78.013 55.0625 77.8669 54.7335 77.4426C52.5808 74.6664 52.4867 71.5165 53.183 68.7179C53.8738 65.9411 55.3639 63.3973 56.5617 61.6319C57.8515 59.7309 60.5387 57.2282 63.9663 55.7586ZM74.1297 64.7525C73.9755 66.6301 72.5231 70.2605 68.0341 72.0649C65.5125 73.0784 62.71 74.5202 60.8507 76.0247C59.9104 76.7855 59.3154 77.4803 59.0587 78.0552C58.8382 78.5492 58.8768 78.897 59.1632 79.2629C59.5448 79.7504 60.2385 80.1916 61.2713 80.4766C62.2936 80.7587 63.5665 80.8632 64.9763 80.7433C67.7998 80.5032 71.0179 79.3771 73.625 77.2424C76.1853 75.1461 78.3382 71.2795 78.887 67.4241C79.4319 63.5963 78.3797 60.0875 74.9726 58.2168C71.3866 56.2478 67.8646 56.5944 64.9017 57.8647C61.8978 59.1527 59.5565 61.3607 58.5077 62.9066C57.3667 64.5882 56.0503 66.8701 55.4548 69.2636C55.1368 70.5421 55.0308 71.8186 55.2496 73.0448C56.4975 70.7395 59.3217 68.3177 64.7174 66.904C68.8242 65.8279 70.5103 64.4794 71.1232 63.4881C71.6828 62.5831 71.4468 61.8052 71.0994 61.3501C70.8024 60.961 70.7869 60.4303 71.0607 60.0252C71.3345 59.62 71.8383 59.4281 72.3185 59.546C73.8588 59.9244 74.8981 61.7832 74.1297 64.7525Z" fill="#9B1D2B"/>
</svg>
