<svg width="131" height="129" viewBox="0 0 131 129" fill="none" xmlns="http://www.w3.org/2000/svg">
<path fill-rule="evenodd" clip-rule="evenodd" d="M56.7382 31.1061C65.6971 27.2181 76.8362 26.0215 88.1122 32.2884C99.8501 38.812 102.871 50.9657 101.258 62.4357C99.6552 73.8336 93.4368 85.3521 85.5521 91.8869C77.7885 98.3211 68.2805 101.685 59.8677 102.409C55.6563 102.772 51.6197 102.482 48.1441 101.511C44.6957 100.547 41.5793 98.8473 39.5447 96.2168C37.2643 93.2684 37.2128 89.9726 38.5309 86.9836C39.7558 84.2062 42.1451 81.6671 44.8511 79.4508C50.3178 74.9734 58.1809 70.9328 64.9574 68.1757C70.1259 66.0729 73.199 62.8412 74.9436 59.8905C71.5017 62.2405 66.6964 64.3346 60.2345 66.0484C39.4071 71.572 37.6591 82.3004 38.2599 85.4075C38.5247 86.7769 37.807 88.1475 36.527 88.7168C35.247 89.2861 33.7413 88.9044 32.8916 87.7952C27.3314 80.5373 27.0885 72.3024 28.8868 64.986C30.6711 57.7264 34.5197 51.0762 37.6134 46.4609C40.9449 41.4911 47.8852 34.9481 56.7382 31.1061ZM82.9884 54.6191C82.5902 59.5278 78.839 69.0187 67.2445 73.736C60.7318 76.3858 53.4934 80.155 48.6911 84.0882C46.2626 86.0772 44.7256 87.8935 44.0628 89.3966C43.4933 90.688 43.5928 91.5974 44.3326 92.5539C45.3183 93.8283 47.1099 94.9818 49.7775 95.7269C52.418 96.4645 55.7056 96.7375 59.3469 96.4241C66.6395 95.7965 74.9512 92.8526 81.685 87.2717C88.2976 81.7913 93.8583 71.6827 95.2757 61.6036C96.683 51.5965 93.9654 42.4234 85.1655 37.5326C75.9035 32.3851 66.8067 33.2912 59.1541 36.6123C51.3955 39.9793 45.3486 45.7519 42.6395 49.7933C39.6926 54.1894 36.2925 60.1551 34.7546 66.4125C33.9331 69.7549 33.6593 73.0922 34.2244 76.2979C37.4476 70.271 44.742 63.9396 58.678 60.2437C69.2854 57.4305 73.6401 53.905 75.2232 51.3135C76.6684 48.9477 76.059 46.914 75.1617 45.7241C74.3946 44.7069 74.3546 43.3196 75.0618 42.2603C75.769 41.2011 77.0702 40.6994 78.3105 41.0077C82.2887 41.9968 84.973 46.8564 82.9884 54.6191Z" fill="#EE1542"/>
<path d="M72.1397 8.157C71.9328 5.35911 71.6089 2.42625 69.5847 0.330082C68.784 -0.497591 67.6325 0.375086 67.8034 1.3647C68.2353 3.86571 68.3432 6.43866 68.3252 8.97565C68.3072 11.3057 67.6235 14.5445 68.5411 16.7396C69.2249 18.3769 71.5729 18.6558 72.1487 16.7396C72.9044 14.2206 72.3286 10.748 72.1397 8.157Z" fill="#EE1542"/>
<path d="M69.351 120.172C69.1261 117.878 69.378 115.503 68.8652 113.262C68.6942 112.516 67.7496 112.525 67.3627 113.065C64.8258 116.672 65.7344 122.7 65.8154 126.865C65.8693 129.447 69.8278 129.456 69.8278 126.865C69.8188 124.625 69.5669 122.412 69.351 120.172Z" fill="#EE1542"/>
<path d="M14.0049 64.7177C12.0257 64.3398 10.0374 64.9426 8.06722 65.2395C5.65617 65.6084 3.21813 65.8962 0.834073 66.4C-0.0835647 66.598 -0.344461 68.0914 0.56418 68.4962C2.63336 69.4139 4.65756 69.4588 6.89768 69.3869C9.28174 69.3059 12.3045 69.1709 14.4457 68.0914C15.8311 67.3986 15.5523 65.0236 14.0049 64.7177Z" fill="#EE1542"/>
<path d="M130.104 66.9581C128.17 66.1305 125.921 66.8862 123.869 67.0841C121.611 67.3 119.326 67.183 117.068 67.3989C116.168 67.4889 115.512 68.5775 116.285 69.2972C118.094 70.9975 120.766 71.1865 123.132 71.1955C125.372 71.2135 128.709 71.2944 130.473 69.783C131.291 69.0993 131.148 67.4079 130.104 66.9581Z" fill="#EE1542"/>
<path d="M109.97 29.3259C111.805 27.2028 113.64 24.8997 113.694 21.9849C113.712 20.8333 112.282 20.6354 111.706 21.4631C110.24 23.5412 108.503 25.4395 106.695 27.2118C105.04 28.8492 102.26 30.6575 101.36 32.8526C100.685 34.4899 102.152 36.3522 103.915 35.4076C106.218 34.157 108.269 31.2872 109.97 29.3259Z" fill="#EE1542"/>
<path d="M28.7859 106.569C30.2433 104.788 32.1056 103.286 33.3291 101.334C33.7339 100.686 33.0592 100.02 32.4025 100.137C28.0572 100.893 24.4316 105.796 21.5527 108.801C19.7624 110.663 22.5603 113.47 24.3866 111.634C25.97 110.042 27.3644 108.297 28.7859 106.569Z" fill="#EE1542"/>
<path d="M28.8581 28.2194C27.7335 26.555 25.8982 25.5744 24.2879 24.3959C22.3267 22.9565 20.3924 21.427 18.3502 20.1046C17.5585 19.5918 16.326 20.4644 16.6769 21.391C17.4866 23.5052 18.89 24.9627 20.5274 26.5011C22.2727 28.1384 24.5038 30.1716 26.7799 30.9273C28.2643 31.4041 29.7487 29.5239 28.8581 28.2194Z" fill="#EE1542"/>
<path d="M109.376 111.895C108.594 109.943 106.461 108.891 104.878 107.577C103.124 106.129 101.594 104.428 99.849 102.998C99.1473 102.422 97.9147 102.728 97.9507 103.79C98.0317 106.273 99.786 108.297 101.45 109.979C103.025 111.581 105.319 113.992 107.64 114.172C108.701 114.253 109.799 112.948 109.376 111.895Z" fill="#EE1542"/>
<path d="M86.777 11.9174C87.3168 9.16449 87.7756 6.24963 86.3812 3.69464C85.8324 2.68704 84.4829 3.22685 84.393 4.22545C84.1501 6.75346 83.5743 9.26346 82.8906 11.7015C82.2608 13.9416 80.7404 16.8835 81.0463 19.2405C81.2712 20.9948 83.4573 21.8855 84.5279 20.1941C85.9134 17.972 86.2732 14.4634 86.777 11.9174Z" fill="#EE1542"/>
<path d="M54.4621 119.209C54.8489 116.942 55.7216 114.72 55.8205 112.417C55.8475 111.652 54.9389 111.409 54.4261 111.832C51.0254 114.639 50.3057 120.694 49.2801 124.733C48.6504 127.234 52.4648 128.296 53.1486 125.795C53.7333 123.618 54.0842 121.422 54.4621 119.209Z" fill="#EE1542"/>
<path d="M15.7504 51.0885C13.9421 50.1978 11.8639 50.2518 9.88467 50.0269C7.46463 49.748 5.03559 49.3791 2.59755 49.2352C1.66192 49.1812 1.01418 50.5487 1.77888 51.1785C3.53318 52.6089 5.46742 53.1937 7.65356 53.7155C9.97464 54.2732 12.9255 54.9389 15.2735 54.4621C16.8029 54.1473 17.1718 51.7902 15.7504 51.0885Z" fill="#EE1542"/>
<path d="M127.126 83.9613C125.48 82.6478 123.105 82.7917 121.072 82.4319C118.832 82.045 116.663 81.3163 114.432 80.9384C113.542 80.7855 112.624 81.6582 113.173 82.5578C114.468 84.672 116.996 85.5626 119.272 86.2014C121.432 86.8132 124.625 87.7758 126.722 86.7772C127.702 86.3364 128.008 84.663 127.126 83.9613Z" fill="#EE1542"/>
<path d="M117.661 42.3351C119.991 40.7697 122.375 39.0334 123.194 36.2445C123.518 35.1379 122.186 34.5712 121.413 35.21C119.452 36.8203 117.274 38.1968 115.061 39.4293C113.028 40.5718 109.879 41.5794 108.422 43.4507C107.342 44.8541 108.26 47.0313 110.203 46.5904C112.767 46.0057 115.502 43.7836 117.661 42.3351Z" fill="#EE1542"/>
<path d="M18.9435 95.3514C20.8237 94.0199 23.0188 93.0663 24.7102 91.5099C25.277 90.9881 24.8001 90.1694 24.1344 90.1064C19.7441 89.6836 14.949 93.4621 11.3774 95.5943C9.15532 96.9168 11.1165 100.362 13.3657 99.0759C15.3089 97.9604 17.1082 96.6469 18.9435 95.3514Z" fill="#EE1542"/>
<path d="M39.7431 19.817C39.0954 17.9097 37.584 16.4793 36.3515 14.914C34.8401 13.0067 33.3826 11.0275 31.7633 9.20119C31.1425 8.49947 29.7121 9.01228 29.811 10.0019C30.0359 12.251 30.9986 14.0323 32.1771 15.9485C33.4276 17.9817 35.038 20.5457 37.0352 21.8682C38.3127 22.7229 40.2469 21.3104 39.7431 19.817Z" fill="#EE1542"/>
<path d="M95.2512 121.819C95.0083 119.723 93.236 118.148 92.0485 116.466C90.735 114.604 89.7184 112.562 88.4049 110.717C87.8831 109.98 86.6146 109.944 86.3627 110.978C85.7779 113.389 86.9385 115.809 88.099 117.869C89.1966 119.831 90.771 122.764 92.9571 123.546C93.9737 123.906 95.3771 122.934 95.2512 121.819Z" fill="#EE1542"/>
<path d="M100.722 20.203C102.008 17.711 103.259 15.039 102.629 12.1961C102.377 11.0716 100.938 11.2155 100.569 12.1512C99.6331 14.5082 98.3826 16.7663 97.0421 18.9165C95.8096 20.8957 93.5335 23.2978 93.1736 25.6458C92.9037 27.4001 94.757 28.8665 96.2504 27.5261C98.2116 25.7807 99.5341 22.5151 100.722 20.203Z" fill="#EE1542"/>
<path d="M39.8244 114.27C40.832 112.2 42.2895 110.302 43.0182 108.125C43.2611 107.396 42.4514 106.911 41.8396 107.171C37.7912 108.917 35.4162 114.54 33.311 118.129C32.0065 120.36 35.3802 122.438 36.7297 120.225C37.8992 118.309 38.8438 116.285 39.8244 114.27Z" fill="#EE1542"/>
<path d="M21.6067 38.0699C20.1223 36.7114 18.1071 36.1896 16.2718 35.4159C14.0227 34.4713 11.7916 33.4457 9.49749 32.627C8.61584 32.3121 7.60824 33.4546 8.17501 34.2733C9.4615 36.1356 11.1618 37.2332 13.1141 38.3397C15.1922 39.5183 17.8372 40.9847 20.2302 41.1826C21.7596 41.2995 22.7672 39.1314 21.6067 38.0699Z" fill="#EE1542"/>
<path d="M119.434 100.631C118.21 98.9127 115.898 98.3819 114.045 97.4823C112.003 96.4837 110.123 95.1882 108.08 94.2075C107.262 93.8117 106.137 94.3965 106.416 95.4131C107.073 97.8062 109.25 99.3626 111.265 100.613C113.172 101.801 115.961 103.609 118.264 103.24C119.326 103.078 120.091 101.549 119.434 100.631Z" fill="#EE1542"/>
<path d="M121.917 58.0159C124.589 57.1613 127.36 56.1627 128.925 53.7067C129.546 52.735 128.422 51.8174 127.504 52.2132C125.174 53.2208 122.7 53.9226 120.226 54.4984C117.959 55.0291 114.648 55.1191 112.732 56.5226C111.301 57.5661 111.58 59.9142 113.578 60.0311C116.204 60.1841 119.443 58.8076 121.917 58.0159Z" fill="#EE1542"/>
<path d="M12.3496 81.4692C14.5267 80.7135 16.8928 80.4076 18.953 79.382C19.6367 79.0402 19.4118 78.1225 18.791 77.8796C14.6887 76.2603 9.03889 78.5454 5.00848 79.5979C2.50747 80.2547 3.4251 84.1052 5.94411 83.5024C8.13024 82.9626 10.2264 82.2069 12.3496 81.4692Z" fill="#EE1542"/>
<path d="M53.3465 14.7064C53.2565 12.7002 52.2039 10.901 51.4482 9.0567C50.5216 6.79859 49.6759 4.49548 48.6323 2.29135C48.2275 1.44569 46.7161 1.53565 46.5361 2.51626C46.1223 4.74738 46.5541 6.71762 47.1569 8.88576C47.7867 11.1889 48.6233 14.0947 50.1797 15.921C51.1693 17.0995 53.4094 16.2808 53.3465 14.7064Z" fill="#EE1542"/>
<path d="M82.3236 126.101C82.6745 124.023 81.4149 122.017 80.7402 120.064C80.0025 117.914 79.5887 115.665 78.842 113.533C78.5451 112.678 77.3306 112.291 76.8088 113.209C75.5763 115.359 76.0261 118.004 76.5569 120.316C77.0607 122.502 77.7624 125.759 79.6426 127.127C80.5153 127.747 82.1347 127.207 82.3236 126.101Z" fill="#EE1542"/>
</svg>
