<svg width="254" height="242" viewBox="0 0 254 242" fill="none" xmlns="http://www.w3.org/2000/svg">
<path fill-rule="evenodd" clip-rule="evenodd" d="M116.25 78.7599C127.875 73.6869 142.33 72.1256 156.963 80.3026C172.194 88.8146 176.115 104.673 174.022 119.639C171.942 134.511 163.872 149.54 153.64 158.067C143.566 166.462 131.228 170.851 120.311 171.796C114.846 172.269 109.607 171.89 105.097 170.624C100.622 169.367 96.5784 167.149 93.9381 163.716C90.9788 159.869 90.912 155.569 92.6225 151.669C94.212 148.045 97.3126 144.732 100.824 141.84C107.918 135.998 118.122 130.726 126.915 127.128C133.622 124.385 137.61 120.168 139.874 116.318C135.408 119.384 129.172 122.116 120.787 124.353C93.7595 131.56 91.4912 145.558 92.2709 149.612C92.6145 151.399 91.6832 153.188 90.0221 153.93C88.3611 154.673 86.4073 154.175 85.3045 152.728C78.0892 143.258 77.774 132.513 80.1076 122.966C82.4231 113.494 87.4173 104.817 91.4319 98.7949C95.7551 92.3102 104.761 83.773 116.25 78.7599ZM150.314 109.44C149.797 115.845 144.929 128.228 129.883 134.383C121.432 137.841 112.039 142.759 105.807 147.891C102.656 150.486 100.661 152.856 99.8011 154.817C99.062 156.502 99.1912 157.689 100.151 158.937C101.43 160.6 103.755 162.105 107.217 163.077C110.643 164.039 114.91 164.396 119.635 163.987C129.098 163.168 139.884 159.327 148.622 152.045C157.203 144.894 164.419 131.704 166.258 118.553C168.085 105.496 164.558 93.5267 153.139 87.1453C141.12 80.4288 129.315 81.611 119.385 85.9444C109.317 90.3377 101.47 97.8697 97.9541 103.143C94.13 108.879 89.7179 116.663 87.7221 124.828C86.656 129.189 86.3008 133.543 87.0341 137.726C91.2167 129.862 100.683 121.601 118.767 116.779C132.532 113.108 138.183 108.508 140.237 105.126C142.112 102.04 141.322 99.3861 140.157 97.8335C139.162 96.5063 139.11 94.6961 140.028 93.314C140.945 91.9318 142.634 91.2772 144.243 91.6796C149.406 92.9702 152.889 99.3109 150.314 109.44Z" fill="#EE1542"/>
<path d="M253.038 133.336C254.434 132.756 254.308 130.718 252.678 130.639C245.012 130.279 237.33 130.859 229.632 130.483C221.888 130.122 213.892 129.009 206.163 129.808C202.573 130.185 202.62 134.935 206.163 135.358C220.21 137.051 239.666 138.87 253.038 133.336Z" fill="#EE1542"/>
<path d="M44.0287 131.737C45.471 131.47 45.471 129.103 44.0287 128.837C30.8911 126.407 16.7503 127.096 3.42456 127.19C-0.573159 127.222 -0.573159 133.352 3.42456 133.383C16.7503 133.461 30.8911 134.167 44.0287 131.737Z" fill="#EE1542"/>
<path d="M124.328 43.5677C125.708 29.8971 125.284 15.3329 122.462 1.86605C122.118 0.235613 119.954 0.815673 119.797 2.22663C118.183 15.9286 119.609 29.8187 117.979 43.5834C117.508 47.6124 123.92 47.6281 124.328 43.5677Z" fill="#EE1542"/>
<path d="M121.788 238.249C122.07 231.664 121.396 224.986 121.475 218.37C121.553 211.44 122.102 204.511 120.879 197.644C120.628 196.171 118.229 196.202 117.947 197.644C115.454 210.076 112.617 226.647 116.003 239.032C116.928 242.293 121.663 241.509 121.788 238.249Z" fill="#EE1542"/>
<path d="M197.039 72.3669C201.821 67.8048 206.524 63.2584 211.525 58.9315C216.667 54.4634 222.076 49.87 225.509 43.9126C226.387 42.3762 224.6 40.4636 223.048 41.4513C217.78 44.7592 213.093 48.945 208.233 52.8173C202.62 57.2854 196.726 61.9415 192.289 67.6167C189.671 70.9403 193.81 75.4397 197.039 72.3669Z" fill="#EE1542"/>
<path d="M61.8852 71.2539C52.228 61.6907 41.0971 53.8364 31.5182 44.1948C30.2954 42.9563 28.1163 44.5711 29.0883 46.0761C36.6447 57.7244 48.8573 64.9673 57.5425 75.5965C60.0039 78.6222 64.7384 74.0915 61.8852 71.2539Z" fill="#EE1542"/>
<path d="M45.4396 213.635C50.1585 207.819 54.2816 201.423 58.6556 195.34C62.8257 189.539 67.2468 183.064 68.4853 175.9C69.1751 171.902 63.8291 170.397 62.4182 174.222C59.7217 181.512 56.0531 187.752 51.7732 194.195C48.1204 199.714 43.9816 205.373 42.508 211.926C42.1631 213.51 44.2638 215.109 45.4396 213.635Z" fill="#EE1542"/>
<path d="M219.348 214.309C211.745 209.857 205.803 203.931 199.846 197.519C194.656 191.938 188.997 183.801 181.597 181.105C178.979 180.148 177.208 183.77 178.995 185.588C185.344 192.047 192.54 197.973 199.03 204.401C204.251 209.575 210.977 216.238 218.784 216.41C219.913 216.426 220.289 214.874 219.348 214.309Z" fill="#EE1542"/>
<path d="M203.514 93.6098C210.537 90.7408 220.775 89.565 225.352 82.8551C226.152 81.6793 224.835 80.0332 223.518 80.4565C219.959 81.6009 216.589 83.153 212.999 84.2504C209.268 85.3792 205.521 86.2728 201.883 87.6837C198.215 89.1261 199.877 95.1148 203.514 93.6098Z" fill="#EE1542"/>
<path d="M208.688 114.257C216.197 113.175 224.381 111.78 231.2 108.315C233.207 107.296 231.686 104.694 229.789 104.976C222.233 106.073 214.567 107.014 207.073 108.393C203.153 109.115 204.894 114.821 208.688 114.257Z" fill="#EE1542"/>
<path d="M228.708 157.746C225.133 156.225 221.684 154.375 218.235 152.572C214.786 150.785 211.212 148.167 207.449 147.179C205.003 146.536 202.573 149.938 204.8 151.726C207.888 154.187 211.98 155.551 215.601 157.087C219.615 158.796 223.659 159.909 227.971 160.442C229.382 160.63 230.009 158.294 228.708 157.746Z" fill="#EE1542"/>
<path d="M219.081 180.462C211.039 175.837 204.016 170.648 196.726 164.973C193.778 162.684 190.141 166.164 192.602 169.112C198.623 176.323 208.97 180.917 217.749 183.644C219.646 184.24 220.775 181.45 219.081 180.462Z" fill="#EE1542"/>
<path d="M180.296 210.594C178.791 207.788 176.909 205.154 175.357 202.347C173.821 199.573 172.692 196.249 170.889 193.662C169.181 191.232 164.65 192.659 165.794 195.81C166.939 198.977 169.384 201.987 171.344 204.699C173.319 207.443 175.53 210.656 178.493 212.397C179.669 213.086 180.907 211.738 180.296 210.594Z" fill="#EE1542"/>
<path d="M152.547 220.031C151.967 217.084 151.152 214.215 150.65 211.252C150.195 208.556 150.384 205.577 149.223 203.084C148.314 201.125 144.912 201.564 144.52 203.696C143.987 206.596 145.116 209.763 145.869 212.569C146.699 215.736 147.813 219.012 149.913 221.568C150.995 222.885 152.814 221.427 152.547 220.031Z" fill="#EE1542"/>
<path d="M176.941 59.3233C179.042 54.6672 180.594 49.8385 183.447 45.5586C184.341 44.2261 182.522 42.2978 181.19 43.2854C176.784 46.5933 174.699 51.7982 172.175 56.5328C170.482 59.7153 175.514 62.5058 176.941 59.3233Z" fill="#EE1542"/>
<path d="M150.885 49.1959C153.88 42.6742 153.315 35.102 153.3 28.0629C153.3 26.4168 150.917 25.6486 150.117 27.2007C147.044 33.1424 147.389 40.448 145.085 46.7503C143.862 50.1052 149.396 52.4568 150.885 49.1959Z" fill="#EE1542"/>
<path d="M100.608 45.0413C98.1939 38.1119 94.6352 31.5118 91.7976 24.7392C91.0921 23.046 88.474 23.1244 88.4426 25.1938C88.3172 32.5935 92.2209 39.8364 94.6195 46.6874C95.9207 50.45 101.941 48.8352 100.608 45.0413Z" fill="#EE1542"/>
<path d="M84.2725 52.3157C79.24 46.6405 74.6309 40.9183 70.2099 34.7571C69.4417 33.691 67.1999 33.8635 67.4037 35.5253C68.3913 43.4893 74.819 50.8263 79.9612 56.6426C82.5636 59.5899 86.8749 55.2473 84.2725 52.3157Z" fill="#EE1542"/>
<path d="M51.3187 82.9647C49.2179 81.1305 46.2549 80.6602 43.7465 79.5157C40.7678 78.1675 38.2438 76.2235 35.4689 74.5147C33.7601 73.4643 31.4868 75.5964 32.6469 77.3366C34.4969 80.1115 37.2718 82.0868 40.0624 83.8427C42.6178 85.4574 46.2549 87.8404 49.359 87.6679C51.6009 87.5582 53.2626 84.6579 51.3187 82.9647Z" fill="#EE1542"/>
<path d="M44.985 107.28C41.5203 105.164 37.0836 104.866 33.1486 104.145C29.2136 103.424 25.2472 102.342 21.2338 102.232C19.5877 102.185 19.086 104.427 20.4186 105.242C23.8362 107.359 27.881 108.221 31.722 109.303C35.5943 110.384 39.6076 112.172 43.6367 112.281C46.3802 112.375 47.2112 108.644 44.985 107.28Z" fill="#EE1542"/>
<path d="M28.5551 154.845C32.0041 154.014 35.312 152.353 38.7453 151.365C41.8808 150.471 46.6154 150.534 48.4653 147.524C49.1551 146.395 48.6534 145.094 47.65 144.388C44.5773 142.241 39.2 145 36.1272 146.207C32.7096 147.54 28.7589 149.233 26.7052 152.415C25.8899 153.685 27.2225 155.159 28.5551 154.845Z" fill="#EE1542"/>
<path d="M39.9839 174.975C41.9906 173.454 43.5427 171.353 45.3613 169.598C47.4777 167.56 49.892 165.929 52.0868 164.001C55.0655 161.414 50.7542 157.197 47.7912 159.705C45.5964 161.555 43.5584 163.734 41.6457 165.866C39.8742 167.826 37.8205 170.209 37.2247 172.843C36.8955 174.285 38.573 176.072 39.9839 174.975Z" fill="#EE1542"/>
<path d="M74.8972 214.952C77.1705 211.425 78.5344 207.254 80.4314 203.508C81.9991 200.419 84.5858 197.487 85.0091 194.023C85.2756 191.859 82.3283 190.354 80.6352 191.514C77.5781 193.6 76.4337 197.942 75.0698 201.25C73.4393 205.232 71.6207 209.763 71.8558 214.121C71.9499 215.752 74.0036 216.332 74.8972 214.952Z" fill="#EE1542"/>
<path d="M99.7618 220.22C101.392 217.727 102.239 214.827 103.085 211.989C103.963 209.12 105.061 206.22 105.249 203.21C105.484 199.526 100.405 199.4 99.2444 202.395C98.2567 204.95 98.1783 207.819 97.708 210.515C97.2063 213.431 96.4695 216.332 96.344 219.295C96.2657 221.223 98.8211 221.662 99.7618 220.22Z" fill="#EE1542"/>
</svg>
