<svg width="118" height="118" viewBox="0 0 118 118" fill="none" xmlns="http://www.w3.org/2000/svg">
<path d="M61.8977 20.8572C61.8816 20.5598 61.8254 20.2625 61.7611 19.9732C61.6888 19.6598 61.6807 19.2419 61.6486 18.7999C61.5762 17.6427 61.5923 16.4292 61.6968 15.272C61.7691 14.4523 61.07 13.6728 60.3226 13.4638C59.2618 13.1745 58.3859 13.8174 58.0162 14.7737C57.092 17.1766 56.1598 21.5644 58.7395 23.26C60.2824 24.2726 62.4683 22.6171 61.8977 20.8572Z" fill="#4B3E35"/>
<path d="M61.6406 4.8088C61.3513 3.45068 61.0861 2.23721 60.5718 0.967482C60.0575 -0.302244 58.4502 -0.342425 57.952 0.967482C57.4216 2.34972 57.3814 3.6114 57.3975 5.08203C57.4135 6.61696 57.4457 8.02331 58.8359 8.96355C59.503 9.41358 60.6361 9.28501 61.1584 8.66621C62.179 7.46078 61.946 6.24729 61.6406 4.8088Z" fill="#4B3E35"/>
<path d="M61.6406 112.687C61.3513 111.329 61.0861 110.116 60.5718 108.846C60.0575 107.576 58.4502 107.536 57.952 108.846C57.4216 110.228 57.3814 111.49 57.3975 112.961C57.4135 114.495 57.4457 115.902 58.8359 116.842C59.503 117.292 60.6361 117.163 61.1584 116.545C62.179 115.339 61.946 114.126 61.6406 112.687Z" fill="#4B3E35"/>
<path d="M62.5247 96.655C62.3077 94.8709 61.9621 93.3119 61.1665 91.6886C60.4674 90.2582 58.2735 90.9975 58.2735 92.4681C58.2735 94.7504 57.5341 97.539 58.3378 99.7248C59.0771 101.734 61.6889 101.742 62.4202 99.7248C62.7979 98.7203 62.6532 97.7077 62.5247 96.655Z" fill="#4B3E35"/>
<path d="M96.2449 59.2785C96.5422 59.2624 96.8396 59.2062 97.1289 59.1419C97.4503 59.0695 97.8602 59.0615 98.3021 59.0374C99.4594 58.9651 100.673 58.9811 101.83 59.0856C102.65 59.1579 103.429 58.4588 103.638 57.7114C103.928 56.6506 103.285 55.7747 102.328 55.405C99.9255 54.4809 95.5377 53.5486 93.842 56.1283C92.8295 57.6632 94.493 59.8571 96.2449 59.2785Z" fill="#4B3E35"/>
<path d="M112.293 59.0293C113.651 58.74 114.865 58.4749 116.134 57.9605C117.404 57.4462 117.444 55.839 116.134 55.3407C114.752 54.8103 113.49 54.7701 112.02 54.7862C110.485 54.8023 109.079 54.8344 108.138 56.2247C107.688 56.8917 107.817 58.0248 108.436 58.5472C109.649 59.5598 110.863 59.3347 112.293 59.0293Z" fill="#4B3E35"/>
<path d="M4.42269 59.0293C5.78081 58.74 6.99428 58.4749 8.26401 57.9605C9.53373 57.4462 9.57391 55.839 8.26401 55.3407C6.88177 54.8103 5.62009 54.7701 4.14946 54.7862C2.61454 54.8023 1.2082 54.8344 0.267964 56.2247C-0.182065 56.8917 -0.0534895 58.0248 0.565301 58.5472C1.77074 59.5598 2.9842 59.3347 4.42269 59.0293Z" fill="#4B3E35"/>
<path d="M20.4468 59.9133C22.2309 59.6963 23.7899 59.3508 25.4132 58.5552C26.8437 57.856 26.1044 55.6621 24.6337 55.6621C22.3514 55.6621 19.5629 54.9228 17.377 55.7264C15.3679 56.4658 15.3599 59.0775 17.377 59.8088C18.3896 60.1785 19.4021 60.0339 20.4468 59.9133Z" fill="#4B3E35"/>
<path d="M87.0273 32.9517C87.2282 32.7267 87.3969 32.4776 87.5577 32.2285C87.7264 31.9553 88.0157 31.6579 88.3131 31.3204C89.0845 30.4525 89.9525 29.6087 90.8445 28.8613C91.4793 28.3309 91.5356 27.2862 91.1499 26.6111C90.6034 25.6548 89.5265 25.4941 88.5943 25.9039C86.2397 26.9487 82.4787 29.3917 83.1056 32.4133C83.4752 34.2295 86.1995 34.5992 87.0273 32.9517Z" fill="#4B3E35"/>
<path d="M98.1975 21.4278C98.9529 20.2705 99.6279 19.2178 100.158 17.9561C100.689 16.6944 99.5797 15.5292 98.302 16.0997C96.9519 16.7024 96.0277 17.5623 94.9991 18.6151C93.9302 19.716 92.9498 20.7286 93.2713 22.376C93.424 23.1636 94.316 23.8708 95.1276 23.8065C96.7027 23.6779 97.4019 22.6573 98.1975 21.4278Z" fill="#4B3E35"/>
<path d="M21.9174 97.7077C22.6728 96.5425 23.3479 95.4978 23.8783 94.2361C24.4167 92.9744 23.2997 91.8091 22.0219 92.3797C20.6718 92.9824 19.7477 93.8423 18.719 94.895C17.6502 95.988 16.6698 97.0086 16.9912 98.656C17.1439 99.4435 18.0359 100.151 18.8476 100.086C20.4227 99.9659 21.1218 98.9373 21.9174 97.7077Z" fill="#4B3E35"/>
<path d="M33.8756 86.9955C34.9846 85.5811 35.8445 84.231 36.4231 82.5193C36.9374 81.0165 34.8721 79.9879 33.8274 81.0326C32.2121 82.6398 29.7209 84.0944 28.7404 86.2079C27.8484 88.1527 29.6807 90.001 31.6254 89.0929C32.6139 88.6429 33.2246 87.8313 33.8756 86.9955Z" fill="#4B3E35"/>
<path d="M84.1503 84.4158C84.3753 84.6087 84.6245 84.7855 84.8736 84.9382C85.1468 85.107 85.4441 85.3963 85.7817 85.6936C86.6496 86.4651 87.4934 87.333 88.2408 88.225C88.7712 88.8599 89.8159 88.9161 90.4909 88.5304C91.4472 87.992 91.6079 86.9071 91.1981 85.9749C90.1534 83.6202 87.7104 79.8593 84.6887 80.4861C82.8806 80.8558 82.5029 83.5801 84.1503 84.4158Z" fill="#4B3E35"/>
<path d="M95.6821 95.5862C96.8474 96.3416 97.8921 97.0166 99.1538 97.547C100.415 98.0855 101.581 96.9684 101.01 95.6906C100.407 94.3405 99.5475 93.4164 98.4948 92.3878C97.4019 91.3189 96.3813 90.3466 94.7338 90.66C93.9463 90.8127 93.2391 91.7047 93.3034 92.5163C93.4239 94.0914 94.4526 94.7826 95.6821 95.5862Z" fill="#4B3E35"/>
<path d="M19.3943 19.3062C20.5595 20.0616 21.6042 20.7367 22.8659 21.2671C24.1276 21.8055 25.2929 20.6885 24.7223 19.4107C24.1196 18.0606 23.2597 17.1364 22.2069 16.1078C21.114 15.039 20.0934 14.0585 18.446 14.38C17.6584 14.5327 16.9513 15.4247 17.0155 16.2364C17.1441 17.8034 18.1728 18.5026 19.3943 19.3062Z" fill="#4B3E35"/>
<path d="M30.1064 31.2641C31.5208 32.3731 32.8709 33.233 34.5826 33.8116C36.0854 34.3259 37.114 32.2606 36.0693 31.2159C34.454 29.6006 33.0075 27.1094 30.894 26.1289C28.9492 25.2369 27.1009 27.0692 28.009 29.014C28.467 29.9944 29.2787 30.6051 30.1064 31.2641Z" fill="#4B3E35"/>
<path d="M75.5917 24.3771C75.6881 24.0958 75.7524 23.7985 75.8006 23.5092C75.8489 23.1877 76.0015 22.802 76.1462 22.3841C76.5239 21.2831 76.998 20.1741 77.5365 19.1455C77.9142 18.4142 77.5686 17.4257 76.9498 16.9516C76.0819 16.2765 75.0211 16.5417 74.322 17.2811C72.546 19.1535 70.0226 22.8502 71.7584 25.4057C72.8031 26.9165 75.4551 26.2174 75.5917 24.3771Z" fill="#4B3E35"/>
<path d="M81.4739 9.4377C81.7231 8.07154 81.94 6.85004 81.9481 5.47584C81.9561 4.10968 80.4855 3.45873 79.5211 4.47933C78.5086 5.55619 77.9862 6.70537 77.4398 8.07153C76.8772 9.49395 76.3629 10.8119 77.2871 12.2022C77.7291 12.8692 78.83 13.1826 79.5533 12.8129C80.9516 12.0897 81.2087 10.8762 81.4739 9.4377Z" fill="#4B3E35"/>
<path d="M40.4009 109.192C40.65 107.825 40.867 106.604 40.8751 105.23C40.8831 103.864 39.4124 103.213 38.4481 104.233C37.4355 105.31 36.9132 106.459 36.3667 107.825C35.8042 109.248 35.2899 110.566 36.2221 111.964C36.6641 112.631 37.765 112.944 38.4883 112.567C39.8866 111.843 40.1357 110.638 40.4009 109.192Z" fill="#4B3E35"/>
<path d="M47.32 94.7022C47.8021 92.9664 48.0673 91.3912 47.9548 89.5911C47.8504 88.008 45.544 87.8473 44.9814 89.2134C44.1135 91.3189 42.3697 93.6173 42.2813 95.9478C42.2009 98.0854 44.6118 99.09 46.0583 97.4988C46.7896 96.7112 47.0387 95.7228 47.32 94.7022Z" fill="#4B3E35"/>
<path d="M92.7327 72.9803C93.014 73.0767 93.3113 73.141 93.6006 73.1892C93.9221 73.2454 94.3078 73.3901 94.7257 73.5348C95.8267 73.9044 96.9357 74.3866 97.9643 74.925C98.6956 75.3027 99.6841 74.9572 100.158 74.3384C100.833 73.4705 100.568 72.4097 99.8287 71.7105C97.9563 69.9345 94.2596 67.4111 91.7041 69.147C90.1933 70.1836 90.8924 72.8436 92.7327 72.9803Z" fill="#4B3E35"/>
<path d="M107.672 78.8548C109.038 79.1039 110.26 79.3209 111.634 79.3289C113.008 79.3369 113.651 77.8663 112.631 76.902C111.554 75.8894 110.404 75.367 109.038 74.8206C107.616 74.258 106.298 73.7437 104.908 74.6679C104.241 75.1099 103.927 76.2108 104.297 76.9341C105.012 78.3404 106.226 78.5896 107.672 78.8548Z" fill="#4B3E35"/>
<path d="M7.91835 37.7895C9.28451 38.0386 10.506 38.2556 11.8802 38.2637C13.2464 38.2717 13.8973 36.8011 12.8767 35.8367C11.7998 34.8242 10.6507 34.3018 9.28452 33.7553C7.8621 33.1928 6.54414 32.6785 5.14583 33.6107C4.47883 34.0527 4.16541 35.1536 4.54311 35.8769C5.25834 37.2752 6.47182 37.5243 7.91835 37.7895Z" fill="#4B3E35"/>
<path d="M22.3997 44.7088C24.1355 45.1909 25.7106 45.4561 27.5107 45.3436C29.1019 45.2391 29.2546 42.9327 27.8884 42.3702C25.7829 41.5023 23.4846 39.7584 21.154 39.67C19.0164 39.5897 18.0119 42.0005 19.6031 43.4471C20.3986 44.1703 21.3871 44.4195 22.3997 44.7088Z" fill="#4B3E35"/>
<path d="M94.2275 45.1266C94.4927 44.99 94.7499 44.8293 94.991 44.6605C95.2562 44.4676 95.6339 44.3069 96.0357 44.106C97.0804 43.5917 98.2055 43.1497 99.3065 42.7961C100.094 42.547 100.544 41.6067 100.448 40.8272C100.311 39.7343 99.3707 39.1798 98.3501 39.2039C95.7705 39.2682 91.3667 40.104 90.7961 43.1336C90.4586 44.9498 92.8373 46.3321 94.2275 45.1266Z" fill="#4B3E35"/>
<path d="M108.95 38.7218C110.091 37.9342 111.112 37.227 112.084 36.2627C113.056 35.2983 112.478 33.8036 111.071 33.8438C109.593 33.8839 108.411 34.334 107.061 34.9126C105.655 35.5233 104.369 36.0859 104.032 37.7333C103.871 38.5208 104.426 39.5173 105.205 39.7584C106.708 40.2326 107.744 39.5495 108.95 38.7218Z" fill="#4B3E35"/>
<path d="M9.37301 80.2209C10.5142 79.4333 11.5347 78.7261 12.5071 77.7618C13.4795 76.7974 12.9009 75.3027 11.4946 75.3429C10.0159 75.3831 8.83457 75.8331 7.48448 76.4117C6.07814 77.0144 4.78432 77.585 4.45483 79.2324C4.2941 80.02 4.8486 81.0165 5.62811 81.2656C7.13089 81.7317 8.16757 81.0486 9.37301 80.2209Z" fill="#4B3E35"/>
<path d="M24.5052 74.8688C26.0723 73.9848 27.3741 73.0606 28.5635 71.7025C29.6163 70.5051 28.0894 68.7693 26.7312 69.3399C24.6258 70.2158 21.7648 70.6096 20.0612 72.1927C18.4941 73.6473 19.4906 76.0581 21.6363 75.9617C22.7131 75.9055 23.5891 75.3831 24.5052 74.8688Z" fill="#4B3E35"/>
<path d="M71.9833 91.6163C72.1199 91.8815 72.2806 92.1386 72.4493 92.3797C72.6422 92.6449 72.8029 93.0226 73.0038 93.4244C73.5182 94.4691 73.9682 95.5861 74.3138 96.6951C74.5629 97.4827 75.5031 97.9327 76.2746 97.8363C77.3675 97.6997 77.9301 96.7595 77.8979 95.7389C77.8256 93.1592 76.9979 88.7553 73.9682 88.1848C72.1601 87.8392 70.7778 90.2179 71.9833 91.6163Z" fill="#4B3E35"/>
<path d="M78.3883 106.331C79.1759 107.472 79.8911 108.492 80.8474 109.465C81.8118 110.437 83.3065 109.859 83.2663 108.46C83.2261 106.982 82.7761 105.8 82.1975 104.45C81.5948 103.044 81.0242 101.758 79.3848 101.42C78.5973 101.26 77.6008 101.814 77.3516 102.594C76.8775 104.089 77.5525 105.125 78.3883 106.331Z" fill="#4B3E35"/>
<path d="M36.8891 6.75359C37.6767 7.89474 38.3838 8.91533 39.3482 9.88772C40.3125 10.8601 41.8073 10.2815 41.7671 8.87514C41.7269 7.39648 41.2769 6.21516 40.6983 4.86507C40.0956 3.45873 39.525 2.17294 37.8776 1.83541C37.09 1.67469 36.0935 2.22918 35.8444 3.0087C35.3783 4.51148 36.0614 5.54815 36.8891 6.75359Z" fill="#4B3E35"/>
<path d="M42.2413 21.8938C43.1253 23.4609 44.0494 24.7627 45.4075 25.9521C46.6049 26.9968 48.3408 25.478 47.7782 24.1198C46.9023 22.0143 46.5085 19.1535 44.9254 17.4498C43.4708 15.8827 41.0599 16.8792 41.1564 19.0168C41.2046 20.0937 41.7269 20.9696 42.2413 21.8938Z" fill="#4B3E35"/>
<path fill-rule="evenodd" clip-rule="evenodd" d="M54.5498 33.493C60.5092 30.8925 67.9188 30.0922 75.4195 34.2838C83.2274 38.647 85.2369 46.776 84.164 54.4476C83.0978 62.071 78.9614 69.7751 73.7165 74.1458C68.5523 78.4494 62.2277 80.6994 56.6316 81.1837C53.8302 81.4261 51.1451 81.232 48.8332 80.5827C46.5393 79.9384 44.4663 78.8013 43.1129 77.0419C41.596 75.0699 41.5617 72.8655 42.4386 70.8663C43.2533 69.0087 44.8427 67.3104 46.6427 65.828C50.2791 62.8334 55.5095 60.1308 60.0171 58.2868C63.4552 56.8803 65.4994 54.7188 66.6599 52.7452C64.3704 54.3171 61.1739 55.7177 56.8755 56.8639C43.0214 60.5584 41.8587 67.734 42.2583 69.8122C42.4344 70.7281 41.957 71.6448 41.1056 72.0256C40.2541 72.4064 39.2526 72.1511 38.6873 71.4091C34.9887 66.5548 34.8272 61.0469 36.0234 56.1534C37.2103 51.2978 39.7703 46.8499 41.8282 43.763C44.0443 40.4389 48.6609 36.0627 54.5498 33.493ZM72.0112 49.2195C71.7463 52.5027 69.2511 58.8506 61.5385 62.0058C57.2063 63.778 52.3915 66.299 49.197 68.9297C47.5816 70.2601 46.5592 71.4749 46.1183 72.4802C45.7395 73.344 45.8057 73.9522 46.2978 74.592C46.9535 75.4444 48.1452 76.2159 49.9197 76.7142C51.6761 77.2076 53.863 77.3902 56.2851 77.1805C61.1361 76.7607 66.6649 74.7918 71.1442 71.059C75.5428 67.3935 79.2417 60.6324 80.1846 53.891C81.1207 47.1979 79.313 41.0625 73.4594 37.7913C67.2984 34.3485 61.2473 34.9545 56.1569 37.1758C50.9959 39.4278 46.9736 43.2887 45.1715 45.9918C43.2113 48.9321 40.9496 52.9223 39.9266 57.1075C39.3801 59.343 39.198 61.5751 39.5739 63.7192C41.7179 59.6882 46.5701 55.4535 55.8402 52.9815C62.8961 51.0999 65.7928 48.7419 66.8459 47.0086C67.8072 45.4262 67.4019 44.066 66.805 43.2702C66.2947 42.5898 66.2681 41.6619 66.7385 40.9534C67.2089 40.245 68.0745 39.9094 68.8995 40.1157C71.5457 40.7772 73.3313 44.0275 72.0112 49.2195Z" fill="#4B3E35"/>
</svg>
