<svg width="151" height="130" viewBox="0 0 151 130" fill="none" xmlns="http://www.w3.org/2000/svg">
<path d="M34.2867 0.562724C23.0905 -1.70486 10.7322 2.887 5.85686 14.2249C-1.7112 31.7987 6.36707 43.8169 19.8025 55.4383C52.314 83.613 87.7733 122.53 135.676 102.377C137.604 101.555 136.753 99.0609 134.854 99.0326C106.906 98.7208 84.4003 96.6233 61.2993 79.1629C52.9943 72.8987 46.0215 64.622 38.6518 57.3374C34.8536 53.6809 30.8286 50.2795 26.5486 47.1899C10.4771 37.3259 13.0564 22.1331 34.2584 1.58314C34.8536 1.4981 34.8536 0.676103 34.2867 0.562724Z" fill="#591A0F"/>
<path d="M29.6095 2.91536C55.2899 3.17046 75.8683 19.3553 97.0985 31.9688C113.907 41.9745 177.258 84.435 130.63 99.7695C129.893 100.025 129.978 101.329 130.8 101.357C158.493 102.009 153.363 73.3238 141.118 58.8113C126.832 41.8895 103.986 31.4019 85.137 20.6025C67.9601 10.7952 50.1312 -2.52684 29.5245 2.26343C29.156 2.37681 29.2127 2.91536 29.6095 2.91536Z" fill="#591A0F"/>
<path d="M7.58588 14.7918C-10.6682 55.8351 5.34664 87.4963 41.4296 111.561C74.3095 133.472 132.133 142.57 147.524 95.1777C148.204 93.0518 145.257 91.6346 144.293 93.7321C123.374 138.829 72.5805 124.486 39.7856 103.199C6.36705 81.4872 -2.05136 53.7093 10.307 16.0107C10.9022 14.225 8.37953 13.0061 7.58588 14.7918Z" fill="#591A0F"/>
<path d="M10.9872 38.1763C8.86134 41.606 5.57334 44.1571 2.90893 47.0766C2.17196 47.8986 3.16403 49.3442 4.18444 48.834C6.22527 47.8419 7.72754 46.1412 9.08809 44.3555C10.5337 42.4564 10.9305 40.614 11.5257 38.4031C11.5824 38.148 11.1289 37.9496 10.9872 38.1763Z" fill="#591A0F"/>
<path d="M15.3522 41.9462C10.9871 46.5947 6.70699 51.385 2.79541 56.4303C2.22851 57.1673 3.30561 58.0743 3.9292 57.3657C8.09589 52.5188 11.9224 47.3884 15.6073 42.1446C15.7206 41.9745 15.4939 41.8044 15.3522 41.9462Z" fill="#591A0F"/>
<path d="M18.3285 46.6231C15.664 49.0607 13.1414 51.6401 10.7037 54.3045C8.40777 56.8555 5.03474 59.4349 3.98598 62.7513C3.84426 63.2331 4.24108 63.8567 4.77963 63.6016C7.6708 62.2977 9.48487 59.3215 11.5257 56.9406C14.1901 53.8793 16.7411 50.7614 19.1221 47.4734C19.5189 46.9632 18.867 46.1695 18.3285 46.6231Z" fill="#591A0F"/>
<path d="M20.6526 52.8022C17.1378 54.8997 14.1049 57.4507 11.1571 60.2285C8.71943 62.5245 4.97791 65.6991 5.06295 69.2705C5.09129 69.8658 5.71488 70.1209 6.19674 69.9791C9.1446 69.1005 10.7319 65.6424 12.6594 63.3748C15.5222 60.0585 18.5834 56.9972 21.673 53.8793C22.2966 53.2557 21.3329 52.4054 20.6526 52.8022Z" fill="#591A0F"/>
<path d="M28.0225 57.0823C22.722 60.3986 17.9317 64.5653 13.2265 68.6753C11.129 70.5177 6.0269 73.2955 7.6142 76.7253C7.89765 77.3488 8.40786 77.6323 9.08813 77.6323C10.2786 77.6039 10.8172 76.9237 11.1006 75.8466C11.2423 75.3647 10.7888 74.9112 10.3353 74.8261C10.2219 74.7978 10.1085 74.7695 9.99517 74.7695C9.45662 74.6561 9.08813 75.223 9.2582 75.7048C9.39993 76.0733 18.527 68.2785 19.5757 67.2297C22.722 64.1685 25.8683 61.1923 28.5894 57.7626C28.9578 57.3091 28.4476 56.7989 28.0225 57.0823Z" fill="#591A0F"/>
<path d="M33.6629 62.6662C28.8159 65.8975 24.1674 69.2988 19.5755 72.927C16.7977 75.1095 11.8374 77.4621 11.724 81.3737C11.6957 82.1107 11.9508 83.0461 12.7728 83.2728C14.2467 83.7263 15.4939 83.4429 16.0891 81.9123C16.3159 81.317 16.1175 80.4383 15.4372 80.2399C15.3238 80.2116 15.2104 80.1832 15.097 80.1266C14.4735 79.9281 13.9066 80.2116 13.7648 80.8635C13.4814 82.1107 19.8306 77.2637 20.1424 76.9803C22.0699 75.2512 24.0257 73.5506 25.9531 71.8215C28.901 69.1571 31.6504 66.3226 34.3999 63.4598C34.8817 63.0063 34.1731 62.3544 33.6629 62.6662Z" fill="#591A0F"/>
<path d="M39.4454 68.4486C34.9102 71.2264 30.8569 74.5994 26.7752 77.9441C23.5156 80.6085 18.8954 83.3296 18.1017 87.6947C17.96 88.4884 18.6686 89.0836 19.4056 89.0553C23.714 88.8852 26.7185 84.8602 29.7798 82.1675C33.8614 78.5677 37.9147 74.7695 41.3728 70.5461C42.4782 69.2139 40.7776 67.6266 39.4454 68.4486Z" fill="#591A0F"/>
<path d="M45.8512 75.0812C41.7979 77.2921 38.2832 80.2116 34.7401 83.1028C31.9056 85.3987 27.6822 87.4679 27.0586 91.2944C26.9453 92.0031 27.5405 92.4566 28.1924 92.4566C31.8773 92.4849 34.57 88.8001 37.2061 86.5325C40.7775 83.4429 44.4057 80.41 47.3819 76.6969C48.2322 75.6198 46.9 74.486 45.8512 75.0812Z" fill="#591A0F"/>
<path d="M54.3265 80.6084C49.3378 83.4996 44.6893 86.8726 40.0974 90.3307C35.9591 93.4203 30.687 96.2264 28.1359 100.818C27.4273 102.094 28.9296 103.171 30.0634 102.859C34.882 101.47 38.8219 96.9917 42.6201 93.8171C47.1269 90.0473 51.5771 86.2491 55.602 81.969C56.3674 81.147 55.1769 80.1266 54.3265 80.6084Z" fill="#591A0F"/>
<path d="M47.1552 8.47091C50.0463 10.3417 53.6745 11.6739 57.1325 10.9652C57.416 10.9086 57.4727 10.4267 57.1325 10.4267C53.5611 10.2283 50.4999 9.97318 47.3252 8.15911C47.1552 8.07408 46.9851 8.35753 47.1552 8.47091Z" fill="#591A0F"/>
<path d="M56.5088 12.0707C46.6448 9.46302 31.1118 6.77026 21.9564 12.8361C21.2762 13.2896 21.5313 14.5651 22.3816 14.5934C27.1152 14.8202 31.8204 13.0912 36.554 12.6376C43.13 11.9857 49.8194 12.0141 56.367 12.9778C56.9623 13.0345 57.0756 12.2125 56.5088 12.0707Z" fill="#591A0F"/>
<path d="M52.966 7.39386C48.7993 5.63648 44.5476 4.55938 40.0691 4.16255C36.2993 3.82242 31.3673 3.22718 27.9659 4.98455C27.2856 5.35304 26.9455 6.60021 27.9092 6.88366C31.594 7.9891 35.7607 7.08207 39.5872 7.22379C43.9807 7.39386 48.3741 7.76234 52.7392 8.10248C53.1644 8.15917 53.3912 7.56393 52.966 7.39386Z" fill="#591A0F"/>
<path d="M49.366 3.14212C42.7617 2.29177 34.0882 1.27136 27.9374 4.44598C27.3988 4.72943 27.3138 5.72149 28.0791 5.77818C31.2254 5.9766 34.3433 5.21129 37.4896 4.87115C41.3728 4.44598 45.256 4.21922 49.196 4.36094C49.9613 4.38929 50.1597 3.2555 49.366 3.14212Z" fill="#591A0F"/>
<path d="M48.0622 10.6535C58.4931 15.132 69.9727 21.4529 81.1973 23.3237C81.6508 23.4087 82.0193 22.7284 81.5941 22.445C71.9285 16.3792 59.2017 13.4597 48.4023 9.88822C47.8921 9.71815 47.552 10.4268 48.0622 10.6535Z" fill="#591A0F"/>
<path d="M35.5619 22.6717C47.4384 34.293 60.3919 45.0641 73.2888 55.5233C83.6063 63.885 92.7334 72.8703 105.857 75.9883C106.934 76.2434 107.643 74.6277 106.736 74.0041C82.7276 57.3374 60.7888 37.7795 36.2705 21.793C35.6753 21.3962 35.0234 22.1615 35.5619 22.6717Z" fill="#591A0F"/>
<path d="M108.805 77.037C112.943 78.7093 129.553 85.1152 125.925 74.3159C123.998 68.5335 112.462 63.9417 107.841 60.8238C98.1758 54.3328 88.7369 47.0198 78.4478 41.606C77.7675 41.2658 77.229 42.2296 77.7675 42.7114C86.5827 50.1378 96.8719 56.1185 106.396 62.5811C111.214 65.8408 116.033 69.1004 120.852 72.3601C121.504 77.8306 119.86 79.4746 115.948 77.2637C113.68 76.6968 111.384 76.3284 109.06 76.1583C108.55 76.1016 108.295 76.8386 108.805 77.037Z" fill="#591A0F"/>
<path d="M77.8809 43.5618C67.5918 32.3089 55.4318 23.0969 42.3649 15.3304C41.6846 14.9052 40.7209 15.4154 40.4374 16.0674C39.7005 17.683 39.0202 19.2987 38.3399 20.9427C37.6596 22.5867 40.0973 23.6638 40.8626 22.0481C44.0656 15.4154 55.7153 26.6116 60.0237 29.7012C66.1462 34.0947 71.7301 39.0267 77.314 44.1004C77.6258 44.3838 78.1644 43.902 77.8809 43.5618Z" fill="#591A0F"/>
<path d="M45.3694 17.7113C42.9034 15.1603 37.6029 17.6546 36.9793 20.8292C36.8659 21.3678 37.4895 21.8496 37.9997 21.6512C40.0972 20.7725 41.8263 16.946 44.5757 18.7034C45.256 19.1285 45.9363 18.3065 45.3694 17.7113Z" fill="#591A0F"/>
<path d="M56.7641 82.1958C55.0918 82.3375 54.0147 81.9974 52.2573 82.4509C50.1031 83.0462 48.0906 84.1233 46.1631 85.172C43.4704 86.646 37.7731 89.4804 38.1416 93.1369C38.1699 93.5904 38.5384 93.9589 38.9919 94.0156C42.0531 94.4124 45.1427 90.5009 47.6087 88.9135C49.4795 87.6947 51.5203 86.7026 53.5611 85.7673C54.95 85.1153 55.8287 84.0666 57.0759 83.443C57.7278 83.1312 57.5294 82.1391 56.7641 82.1958Z" fill="#591A0F"/>
<path d="M65.2957 81.6005C59.5417 83.5846 54.0712 86.4191 48.5723 89.0268C43.6403 91.3511 38.1131 93.3636 33.7196 96.6516C32.3591 97.672 33.5496 99.5428 35.0518 99.1176C40.8058 97.5303 46.3047 94.0155 51.6335 91.2944C56.5655 88.8001 61.6392 86.4191 66.2594 83.3862C67.2799 82.7343 66.3728 81.232 65.2957 81.6005Z" fill="#591A0F"/>
<path d="M64.2186 85.3137C55.1766 89.5938 45.8795 94.7242 37.7729 100.563C36.384 101.555 37.6595 104.078 39.2185 103.256C48.1187 98.5791 56.8773 92.57 64.7855 86.3625C65.2673 85.9373 64.8422 85.0019 64.2186 85.3137Z" fill="#591A0F"/>
<path d="M67.5633 90.1606C62.2061 91.4645 57.1608 93.5053 52.2571 95.943C47.6369 98.2106 41.0609 100.648 38.0564 104.957C37.6028 105.609 37.9997 106.657 38.9067 106.516C44.0088 105.694 48.9691 101.527 53.5043 99.2026C58.3796 96.68 63.3399 94.3557 68.1302 91.6346C68.8105 91.2378 68.3569 89.9622 67.5633 90.1606Z" fill="#591A0F"/>
<path d="M70.2562 91.0677C64.6155 93.4487 59.0883 95.8863 53.5894 98.5507C48.9125 100.847 42.1665 102.973 38.9635 107.224C38.3399 108.046 38.9918 109.038 39.9272 109.01C45.1143 108.925 50.6132 104.9 55.12 102.519C60.6756 99.5995 66.0611 96.4816 71.4466 93.2503C72.6938 92.5416 71.56 90.5292 70.2562 91.0677Z" fill="#591A0F"/>
<path d="M74.9613 93.392C69.6325 95.4045 64.5304 97.9271 59.485 100.478C55.1483 102.689 48.9124 104.503 45.8795 108.443C45.3693 109.095 45.9079 109.917 46.6732 109.889C51.5202 109.747 56.5088 105.92 60.7606 103.738C65.9477 101.102 71.1064 98.409 75.9817 95.206C76.9738 94.5541 76.0668 92.9952 74.9613 93.392Z" fill="#591A0F"/>
<path d="M81.7642 94.5825C76.3503 97.1335 71.0215 99.7979 65.721 102.576C60.4489 105.325 54.4115 107.763 49.933 111.674C49.3661 112.185 49.8196 113.007 50.5566 112.808C55.6303 111.448 60.3355 108.33 64.9557 105.807C70.8798 102.576 76.7188 99.316 82.5012 95.8296C83.1531 95.4045 82.5012 94.214 81.7642 94.5825Z" fill="#591A0F"/>
<path d="M85.9878 98.8058C79.5819 100.847 73.5728 103.341 67.507 106.317C62.8868 108.585 56.5659 110.682 53.2212 114.707C52.711 115.331 53.2212 116.323 54.0432 116.209C59.6555 115.529 65.4379 111.051 70.4832 108.5C75.9538 105.75 81.2826 102.916 86.5831 99.8829C87.2634 99.5427 86.6398 98.6074 85.9878 98.8058Z" fill="#591A0F"/>
<path d="M92.1382 101.47C86.2425 103.823 80.6018 106.686 74.9329 109.492C69.9159 111.958 64.1335 114.027 59.9668 117.825C59.6267 118.137 59.7684 118.846 60.3353 118.761C65.8625 117.74 70.9079 114.424 75.8966 111.929C81.6506 109.038 87.4046 106.204 92.9318 102.859C93.6688 102.377 92.9602 101.158 92.1382 101.47Z" fill="#591A0F"/>
<path d="M100.33 103.114C95.5679 105.382 90.7492 107.536 86.044 109.917C83.6914 111.107 81.3388 112.326 78.9861 113.517C77.824 114.112 76.6335 114.736 75.4714 115.359C74.9895 115.614 70.9646 118.307 70.7661 118.25C71.3614 118.364 71.7015 117.655 71.4181 117.202C71.333 117.06 71.248 116.918 71.1346 116.748C70.9362 116.436 70.426 116.266 70.0859 116.436C69.0655 117.003 68.8104 117.145 68.697 118.335C68.6403 118.817 68.867 119.413 69.3773 119.583C73.5723 120.83 78.2775 116.635 81.8773 114.679C88.2549 111.221 94.5191 107.593 100.783 103.936C101.237 103.681 100.812 102.887 100.33 103.114Z" fill="#591A0F"/>
<path d="M109.372 103.341C102.796 105.41 96.3901 108.188 89.9842 110.767C86.2993 112.27 79.61 113.29 79.7233 118.222C79.7233 118.732 80.1485 119.214 80.602 119.412C81.9342 120.036 83.3231 119.469 83.8333 118.08C84.0034 117.655 83.8333 117.23 83.4365 117.031C83.2948 116.975 83.1531 116.89 83.0113 116.833C82.3878 116.521 81.9342 117.287 82.2177 117.797C82.6429 118.534 107.955 106.799 110.251 105.609C111.611 104.928 110.874 102.859 109.372 103.341Z" fill="#591A0F"/>
<path d="M107.444 104.702C101.039 107.253 94.831 110.597 88.8219 113.97C87.2913 114.821 88.7369 117.457 90.2959 116.663C97.4388 113.035 105.12 111.108 112.405 107.876C113.255 107.508 112.943 106.289 112.036 106.317C104.156 106.629 96.1349 110.314 89.1904 113.772C89.6723 114.679 90.1541 115.586 90.6643 116.465C96.5884 113.205 102.598 109.747 108.011 105.722C108.55 105.325 108.068 104.446 107.444 104.702Z" fill="#591A0F"/>
<path d="M36.1575 12.8077C29.0147 13.0344 19.4058 15.217 14.7005 21.1411C14.3037 21.6229 14.8989 22.1615 15.4091 21.878C18.5838 20.064 21.2482 17.683 24.6496 16.124C28.306 14.4517 32.1893 13.3746 36.1859 12.9778C36.2709 12.9494 36.2426 12.8077 36.1575 12.8077Z" fill="#591A0F"/>
<path d="M35.874 11.9574C31.6789 13.0061 28.0225 14.4801 24.366 16.8327C21.1063 18.9019 16.7129 21.793 15.1823 25.4779C14.9838 25.9314 15.4657 26.5266 15.9476 26.2999C19.1505 24.7126 21.7016 21.623 24.6211 19.4971C28.1925 16.8894 32.1891 14.5651 36.1291 12.5526C36.4692 12.3542 36.2708 11.8724 35.874 11.9574Z" fill="#591A0F"/>
<path d="M36.1574 16.039C32.1891 17.1445 28.2209 18.4767 24.5927 20.4892C21.5032 22.2182 17.5065 24.0323 15.7492 27.2636C15.5508 27.6321 15.9759 27.9439 16.3161 27.8305C19.4056 26.9234 21.985 24.3724 24.7345 22.7284C28.5043 20.4608 32.4443 18.5901 36.5542 17.0878C37.2629 16.8327 36.8377 15.8406 36.1574 16.039Z" fill="#591A0F"/>
<path d="M29.7515 22.6433C25.925 25.6478 21.2481 28.4823 18.0451 32.1672C17.8184 32.4223 18.1585 32.7057 18.4136 32.564C22.637 30.1547 26.3218 26.1297 30.0066 22.9834C30.2334 22.8134 29.9783 22.4449 29.7515 22.6433Z" fill="#591A0F"/>
<path d="M31.3953 26.7817C28.4758 28.1706 25.7263 29.8713 23.0619 31.6854C21.2479 32.9042 19.4055 34.0663 18.0449 35.7954C18.3283 35.8804 18.6118 35.9654 18.9236 36.0505C18.8669 35.4269 17.9032 35.5403 17.9315 36.1638C17.9599 36.4189 18.215 36.6457 18.4701 36.589C20.4259 36.2205 22.0415 34.6616 23.6288 33.5561C26.3783 31.6003 29.0143 29.4745 31.7921 27.547C32.2173 27.2636 31.8488 26.5833 31.3953 26.7817Z" fill="#591A0F"/>
<path d="M30.5734 31.8271C27.3988 33.9813 23.2038 36.1355 20.7661 39.14C20.426 39.5652 20.8795 40.2171 21.3897 39.9904C24.9895 38.5448 28.2775 35.1718 31.2537 32.7625C31.849 32.3089 31.197 31.4019 30.5734 31.8271Z" fill="#591A0F"/>
<path d="M34.9952 35.937C33.2661 36.759 31.6221 37.7228 29.9498 38.6581C28.0507 39.7353 25.8681 40.7273 24.4225 42.3997C23.969 42.9099 24.5643 43.5618 25.1312 43.3917C26.9736 42.8532 28.5609 41.5777 30.1199 40.5006C31.9056 39.2817 33.6913 38.0346 35.392 36.674C35.7605 36.3906 35.4487 35.7386 34.9952 35.937Z" fill="#591A0F"/>
<path d="M143.641 76.5268C134.967 79.0212 125.529 84.5767 119.633 91.4362C119.349 91.7763 119.775 92.1165 120.115 91.9464C124.225 89.6788 128.108 87.0144 132.076 84.5484C136.044 82.0824 140.296 80.1833 144.349 77.8307C145.143 77.3772 144.406 76.3001 143.641 76.5268Z" fill="#591A0F"/>
<path d="M148.686 79.8715C144.803 81.4588 140.92 83.0744 137.15 84.9168C133.834 86.5325 129.497 88.0064 127.088 90.8976C126.662 91.4078 127.116 92.0881 127.711 92.0597C131.396 91.833 134.996 89.3103 138.199 87.6379C142.025 85.6255 145.71 83.4146 149.395 81.1753C150.104 80.7218 149.452 79.5597 148.686 79.8715Z" fill="#591A0F"/>
<path d="M147.184 85.5972C143.301 87.2128 139.474 88.9135 135.704 90.8126C132.388 92.4566 128.505 93.8738 125.699 96.3682C125.33 96.7083 125.472 97.4736 126.096 97.3602C129.78 96.6233 133.125 94.4407 136.47 92.7684C140.296 90.8409 144.038 88.8001 147.751 86.6176C148.29 86.2491 147.779 85.3421 147.184 85.5972Z" fill="#591A0F"/>
<path d="M143.556 92.825C140.523 93.7888 137.49 94.7241 134.514 95.7729C131.509 96.8217 128.278 97.757 125.642 99.5711C125.217 99.8546 125.5 100.563 126.01 100.506C128.873 100.11 131.509 98.8341 134.145 97.757C137.405 96.4248 140.608 94.9226 143.811 93.477C144.208 93.2786 143.981 92.7117 143.556 92.825Z" fill="#591A0F"/>
<path d="M135.024 87.4679C118.499 94.6108 102.796 94.8942 86.3276 87.6096C72.4953 81.4871 61.8377 71.0279 46.985 66.9179C46.7016 66.8329 46.5882 67.2864 46.8433 67.3998C77.4557 80.1549 100.812 107.394 135.392 88.1198C135.733 87.9214 135.392 87.2978 135.024 87.4679Z" fill="#591A0F"/>
</svg>
