<svg width="210" height="71" viewBox="0 0 210 71" fill="none" xmlns="http://www.w3.org/2000/svg">
<path d="M76.8828 13.4182C76.8828 8.45204 80.3425 4.80847 85.0414 4.80847C88.3522 4.80847 94.1591 6.3456 92.2235 13.6371L81.0475 13.694C81.0475 14.7757 81.0913 17.4602 85.2648 17.6792C86.9158 17.7668 88.142 17.0267 88.8645 15.6735L92.1227 17.9726C90.59 20.6615 89.0134 21.9315 85.0414 21.9315C80.2855 21.9359 76.8828 18.3536 76.8828 13.4182ZM88.8645 12.7087C88.6237 9.96727 87.1172 9.4549 85.3392 9.43738C82.3482 9.4111 81.0475 11.0709 81.0475 12.7087H88.8645Z" fill="#1C1C1C"/>
<path d="M144.319 41.9228C144.319 35.3626 148.891 30.5498 155.097 30.5498C159.467 30.5498 167.14 32.5818 164.582 42.2119L149.82 42.2863C149.82 43.7183 149.877 47.2612 155.395 47.5546C157.58 47.6684 159.196 46.6919 160.15 44.9051L164.455 47.9443C162.428 51.4959 160.348 53.1776 155.101 53.1776C148.812 53.1732 144.319 48.4436 144.319 41.9228ZM160.146 40.9856C159.831 37.364 157.834 36.6896 155.491 36.6633C151.536 36.6239 149.82 38.8223 149.82 40.9856H160.146Z" fill="#1C1C1C"/>
<path d="M99.2041 32.5557C97.4129 32.5557 96.1079 31.2113 96.1079 29.3895C96.1079 27.6334 97.4173 26.394 99.2041 26.394H99.2391C101.03 26.394 102.335 27.6334 102.335 29.3895C102.335 31.2156 101.026 32.5557 99.2391 32.5557H99.2041ZM96.7254 53.1734V33.8607C98.7924 35.1701 100.435 34.9599 101.818 33.8607V53.1734H96.7254Z" fill="#1C1C1C"/>
<path d="M111.172 53.1733H105.326L105.168 30.8652H110.975L111.054 38.437C111.006 33.9614 114.518 30.8652 118.858 30.8652C124.796 30.8652 126.482 35.0518 126.758 40.4384C126.811 41.4938 126.789 42.5492 126.728 43.6046L126.185 53.1689H121.039V42.282C121.039 39.2997 119.09 36.7948 116.029 36.7948C111.943 36.7948 111.733 40.9551 111.177 43.4995V53.1733H111.172Z" fill="#1C1C1C"/>
<path d="M172.986 53.1733H167.14L166.982 30.8652H172.789L172.868 37.2721C173.345 34.0533 174.896 31.4038 177.917 30.8258C179.949 30.4404 187.661 29.5821 186.597 38.4151L180.825 38.4545C180.365 36.3962 179.262 35.7043 178.268 35.7043C175.684 35.7043 172.986 38.5771 172.986 40.9638V53.1733Z" fill="#1C1C1C"/>
<path d="M80.8153 45.7942V33.6198H77.3469V29.9675H80.8153C82.3262 29.4463 84.2662 27.8961 83.9597 25.632H89.9155C89.9593 27.064 90.4366 29.2098 86.7712 29.9675H93.3795V33.6198H86.7712V45.7898C86.7712 46.8102 87.5463 47.2569 88.4046 47.2569C89.3418 47.2569 90.6468 46.3591 91.3825 44.6862L94.3167 49.337C93.3401 50.9705 90.6468 53.1689 87.6295 53.1689C82.9787 53.1733 80.8153 50.7691 80.8153 45.7942Z" fill="#1C1C1C"/>
<path d="M130.389 45.7942V33.6198H126.92V29.9675H130.389C131.9 29.4463 133.84 27.8961 133.533 25.632H139.489C139.533 27.064 140.01 29.2098 136.345 29.9675H142.953V33.6198H136.345V45.7898C136.345 46.8102 137.12 47.2569 137.978 47.2569C138.915 47.2569 140.22 46.3591 140.956 44.6862L143.89 49.337C142.914 50.9705 140.22 53.1689 137.203 53.1689C132.552 53.1733 130.389 50.7691 130.389 45.7942Z" fill="#1C1C1C"/>
<path d="M94.6584 17.1581V0H99.1428V17.1581C99.1428 17.4602 99.1735 17.5785 99.353 17.758C99.9267 18.3886 101.372 17.85 102.213 16.9741V21.2177C100.737 21.8176 99.6859 22.0891 98.9326 22.0891C96.0117 22.0935 94.6584 20.5608 94.6584 17.1581Z" fill="#1C1C1C"/>
<path d="M70.2788 67.3096L71.3693 7.76002C71.3693 6.94547 70.7124 6.28857 69.8978 6.28857L1.47144 12.8269C0.656893 12.8269 0 13.4837 0 14.2983L5.79818 52.2711C5.79818 53.0857 6.45507 53.7425 7.26962 53.7425L55.4725 55.1921C55.8929 55.1921 56.2958 55.3716 56.576 55.6913L67.7038 68.2862C68.6016 69.2978 70.2788 68.6628 70.2788 67.3096Z" fill="#84513C"/>
<path d="M49.7575 24.7736C49.7575 24.7736 45.4045 28.4128 43.9725 30.2521C43.136 31.3251 42.5054 31.7717 42.12 31.9601C42.7287 31.7411 43.8805 31.2243 44.8177 30.2477C46.1533 28.8551 41.9317 42.1682 35.1701 37.9728C34.7935 37.7495 34.4694 37.4473 34.2285 37.0838C33.5717 36.0897 32.4374 33.8869 32.7133 30.7864C32.7133 30.7864 32.9629 31.7761 34.1059 32.1221C34.1059 32.1221 30.9572 29.5777 35.0606 24.5503H22.9825C22.5008 24.5503 22.0935 24.7255 21.8089 25.0627C21.4235 25.5137 21.3228 26.1881 21.3578 26.7312H18.2091C17.5303 26.7312 16.9216 27.0071 16.4968 27.5063C15.7961 28.334 15.9056 29.3894 15.9538 29.696C16.3523 32.1308 17.7931 34.6664 19.9083 36.6546C21.9753 38.599 24.4058 39.7508 26.8232 39.961C28.2333 41.5901 29.8361 42.7944 31.6185 43.5608H24.0511C23.1051 43.5608 22.3388 44.3272 22.3388 45.2731C22.3388 46.219 23.1051 46.9854 24.0511 46.9854H49.3765C50.3224 46.9854 51.0888 46.219 51.0888 45.2731C51.0888 44.3272 50.3224 43.5608 49.3765 43.5608H41.7741C43.9374 42.6236 45.8424 41.0427 47.4715 38.8224C49.6699 35.8226 51.2946 31.6272 52.0435 27.0071C52.1355 26.4421 52.0741 25.6495 51.6231 25.124C51.4041 24.8656 50.9925 24.5591 50.2786 24.5591L49.7575 24.7736ZM19.4134 30.0332H22.0103C22.4614 31.8155 23.1052 33.7599 24.0248 35.643C21.8483 34.373 20.0703 32.1484 19.4134 30.0332ZM33.195 46.8146C33.195 46.8146 31.671 43.39 33.5848 37.6268C33.5848 37.6268 34.4563 38.4764 35.2007 38.9187C35.2007 38.9187 35.3934 40.3683 36.0503 43.7929C34.9774 44.3096 34.0578 45.4483 33.195 46.8146Z" fill="white"/>
<path d="M53.782 13.1992C53.782 13.1992 54.4389 16.6194 46.5562 18.831C39.5493 20.7973 39.3654 22.6979 39.4092 23.0964C39.164 21.9271 40.0617 20.6922 40.0617 20.6922C37.3334 21.8001 36.0809 23.2322 35.5598 24.5547H49.2407C55.7746 21.0425 53.782 13.1992 53.782 13.1992Z" fill="white"/>
<path d="M199.196 30.6945C192.986 30.6945 188.393 34.7365 188.393 42.3828C188.393 50.029 192.986 54.3426 199.196 54.3426C205.437 54.3426 210 50.029 210 42.3828C210 34.7365 205.437 30.6945 199.196 30.6945ZM195.829 48.4087C195.216 47.9883 194.699 47.3927 194.313 46.6482C194.182 46.3942 194.059 46.1183 193.959 45.8293C193.381 44.1958 193.389 42.2558 193.981 40.3727C194.572 38.4852 195.675 36.8912 197.085 35.8839C198.351 34.9774 199.717 34.649 200.97 34.9467C201.714 37.3685 200.817 40.0267 198.728 41.4982C197.453 42.4003 196.529 43.6615 196.061 45.1505C195.728 46.2147 195.649 47.3226 195.829 48.4087ZM204.149 43.5652C202.984 47.2701 199.897 49.6393 197.16 48.9955C196.415 46.5738 197.313 43.9155 199.402 42.4441C200.676 41.542 201.601 40.2807 202.069 38.7918C202.406 37.7232 202.481 36.6153 202.301 35.5292C202.914 35.9496 203.431 36.5452 203.816 37.2897C203.948 37.5437 204.07 37.8196 204.171 38.1086C204.749 39.7421 204.74 41.6777 204.149 43.5652Z" fill="#1C1C1C"/>
<path d="M83.0882 58.0604L88.2558 70.3575H87.3099L85.8734 66.9416C85.7815 67.1037 85.6764 67.2526 85.5581 67.3796C84.9626 67.9751 83.9685 68.2729 82.5802 68.2729C81.5774 68.2861 80.8416 68.3912 80.3731 68.5882C79.7643 68.8685 79.287 69.3984 78.9367 70.1823C78.9367 70.2042 78.9323 70.2305 78.9191 70.2524C78.8972 70.3005 78.8797 70.3356 78.8666 70.3575H77.9207L83.0882 58.0604ZM83.0882 60.3201L79.9351 67.8175C79.9702 67.8043 80.0008 67.7956 80.0227 67.7824C80.6052 67.5241 81.4591 67.3971 82.5802 67.3971C83.7232 67.3971 84.5071 67.1869 84.9275 66.7665C85.3129 66.3592 85.3479 65.7461 85.0326 64.9271L83.0882 60.3201Z" fill="black"/>
<path d="M98.2229 58.0956C99.8214 58.0956 101.205 58.643 102.374 59.7422C102.431 59.7991 102.484 59.8517 102.532 59.8998L101.902 60.5129C100.886 59.4969 99.6593 58.9846 98.2229 58.9714C96.7865 58.9714 95.5603 59.4794 94.5443 60.4954C93.5283 61.5246 93.0159 62.7551 93.0028 64.1916C93.0028 65.6499 93.5064 66.8936 94.5093 67.9227C95.5384 68.9518 96.7646 69.4686 98.1879 69.4817C99.4973 69.4686 100.64 69.0394 101.621 68.1855V65.8732C101.503 65.8732 101.267 65.8732 100.903 65.8732C100.391 65.8732 100.023 65.8951 99.7995 65.9433C99.5674 66.0352 99.4141 66.171 99.344 66.3462L98.5207 66.0484C98.6959 65.571 99.0462 65.2557 99.5717 65.1024C99.8739 65.0192 100.325 64.9842 100.921 64.9973C101.529 64.9973 101.937 64.9798 102.147 64.9448C102.497 64.8879 102.742 64.7696 102.882 64.5944C102.896 64.5725 102.904 64.555 102.918 64.5419L103.653 65.0324C103.618 65.0805 103.588 65.12 103.566 65.155C103.307 65.4572 102.953 65.663 102.497 65.7681V68.5708H102.48V68.5884C101.337 69.7226 99.9703 70.305 98.3806 70.3401C98.3105 70.3532 98.2448 70.3576 98.1879 70.3576C96.5895 70.3445 95.21 69.7927 94.0538 68.6935C93.9969 68.6365 93.9444 68.584 93.8962 68.5358C92.762 67.3928 92.1751 66.0177 92.127 64.4193C92.127 64.3361 92.127 64.2616 92.127 64.1916C92.1401 62.58 92.6919 61.183 93.7911 60.005C93.8393 59.9568 93.8831 59.913 93.9312 59.8648C95.0523 58.7306 96.4143 58.1438 98.0127 58.0956C98.0915 58.0956 98.1616 58.0956 98.2229 58.0956Z" fill="black"/>
<path d="M108.523 58.0956H116.721V58.9714H109.399V66.136C109.552 65.9958 109.714 65.8863 109.889 65.8031C110.507 65.501 111.396 65.3477 112.552 65.3477C113.686 65.3345 114.509 65.063 115.022 64.5244L115.652 65.12C114.965 65.8425 113.931 66.2104 112.552 66.2235C111.523 66.2235 110.77 66.3462 110.292 66.5914C109.78 66.8498 109.486 67.2614 109.416 67.8351C109.403 67.9534 109.399 68.076 109.399 68.203V69.4817H116.721V70.3576H108.523V58.0956Z" fill="black"/>
<path d="M121.959 58.0956L129.964 67.9052V58.0956H130.84V70.3576L122.835 60.548V70.3576H121.959V58.0956Z" fill="black"/>
<path d="M142.069 58.0956C143.667 58.0606 145.064 58.5861 146.255 59.6722C146.347 59.7554 146.43 59.8298 146.5 59.8999L145.87 60.513C144.867 59.4839 143.645 58.9715 142.209 58.9715C141.508 58.9715 140.838 59.0985 140.194 59.3569C138.955 59.8692 138.053 60.7363 137.479 61.9494C137.142 62.672 136.971 63.434 136.971 64.2266C136.971 65.6762 137.479 66.9111 138.495 67.9403C138.986 68.4308 139.55 68.8118 140.194 69.0789C141.539 69.6526 142.887 69.6438 144.241 69.0614C144.849 68.7942 145.392 68.4176 145.87 67.9403L146.483 68.5534C145.362 69.6964 144 70.3007 142.401 70.3576C141.512 70.3795 140.663 70.2219 139.844 69.8847C138.456 69.3022 137.422 68.33 136.743 66.9768C136.31 66.101 136.095 65.1769 136.095 64.2091C136.095 62.5975 136.643 61.2005 137.742 60.0225C138.359 59.3788 139.069 58.8883 139.861 58.5511C140.571 58.262 141.307 58.1088 142.069 58.0956Z" fill="black"/>
<path d="M152.106 58.0956H152.982V70.3576H152.106V58.0956Z" fill="black"/>
<path d="M163.054 58.0604L168.222 70.3575H167.276L165.839 66.9416C165.747 67.1037 165.642 67.2526 165.524 67.3796C164.928 67.9751 163.934 68.2729 162.546 68.2729C161.543 68.2861 160.807 68.3912 160.339 68.5882C159.73 68.8685 159.253 69.3984 158.902 70.1823C158.902 70.2042 158.898 70.2305 158.885 70.2524C158.863 70.3005 158.846 70.3356 158.832 70.3575H157.886L163.054 58.0604ZM163.054 60.3201L159.901 67.8175C159.936 67.8043 159.967 67.7956 159.989 67.7824C160.571 67.5241 161.425 67.3971 162.546 67.3971C163.689 67.3971 164.473 67.1869 164.893 66.7665C165.279 66.3592 165.314 65.7461 164.998 64.9271L163.054 60.3201Z" fill="black"/>
</svg>
